<svg viewBox="0 0 283.46 85.73" xmlns="http://www.w3.org/2000/svg"><g fill="#fff"><path d="m4.24 38.67s4.66 4.54 10.76 4.54c3.27 0 6.24-1.7 6.24-5.21-.05-7.69-20.33-6.36-20.33-19.56 0-7.15 6.17-12.44 14.41-12.44 8.48 0 12.84 4.6 12.84 4.6l-3.39 6.36a15.71 15.71 0 0 0 -9.51-3.76c-3.64 0-6.48 2.12-6.48 5.15 0 7.65 20.22 5.72 20.22 19.47 0 6.84-5.2 12.6-14.17 12.6a20.81 20.81 0 0 1 -14.83-5.88z"/><path d="m47.08 21.19c7.26 0 10.7 4.15 10.7 4.15l-3.06 4.75a10.87 10.87 0 0 0 -7.26-3 8.27 8.27 0 0 0 -8.46 8.07v.55a8.48 8.48 0 0 0 8.19 8.74h.49c4.69 0 8.19-3.55 8.19-3.55l2.65 4.9a15.86 15.86 0 0 1 -11.46 4.53c-9.23 0-15.12-6.49-15.12-14.57 0-7.92 5.89-14.58 15.12-14.58"/><path d="m62.64 10.93h6.88v6.17h-6.88zm0 10.92h6.93v27.84h-6.93z"/><path d="m88.3 21.19c8 0 12.33 5.84 12.33 13.21 0 .82-.16 2.68-.16 2.68h-19.21c.43 4.86 4.2 7.37 8.35 7.37a13.78 13.78 0 0 0 8-3.06l2.68 5a17.45 17.45 0 0 1 -11.19 4c-9.23 0-15-6.66-15-14.57 0-8.57 5.84-14.58 14.14-14.58m5.35 11.14c-.11-3.77-2.46-5.79-5.52-5.79-3.54 0-6 2.19-6.66 5.79z"/><path d="m105.28 21.85h6.66v3.22a17.47 17.47 0 0 1 -.11 1.91h.11a10.79 10.79 0 0 1 9.88-5.79c6.17 0 9.66 3.23 9.66 10.59v17.91h-6.88v-16.49c0-3.38-.87-5.67-4.42-5.67a7.68 7.68 0 0 0 -7.48 5.67 11.68 11.68 0 0 0 -.49 3.72v12.77h-6.93z"/><path d="m150.75 21.19c7.27 0 10.7 4.15 10.7 4.15l-3 4.75a10.93 10.93 0 0 0 -7.26-3 8.27 8.27 0 0 0 -8.47 8.07v.55a8.48 8.48 0 0 0 8.19 8.74h.48c4.7 0 8.19-3.55 8.19-3.55l2.68 4.9a15.88 15.88 0 0 1 -11.47 4.53c-9.22 0-15.12-6.49-15.12-14.57 0-7.92 5.9-14.58 15.12-14.58"/><path d="m178.52 21.19c8 0 12.34 5.84 12.34 13.21 0 .82-.17 2.68-.17 2.68h-19.24c.43 4.86 4.2 7.37 8.35 7.37a13.69 13.69 0 0 0 8-3.06l2.68 5a17.45 17.45 0 0 1 -11.19 4c-9.23 0-15-6.66-15-14.57 0-8.57 5.84-14.58 14.14-14.58m5.35 11.14c-.11-3.77-2.46-5.79-5.51-5.79-3.55 0-6 2.19-6.66 5.79z"/><path d="m197.38 41.39a11.68 11.68 0 0 0 7.62 3.06c2 0 3.66-.87 3.66-2.51 0-4.15-13.54-3.6-13.54-12.56 0-5.18 4.64-8.19 10.64-8.19 6.28 0 9.34 3.17 9.34 3.17l-2.55 5.13a10.52 10.52 0 0 0 -6.82-2.4c-1.8 0-3.55.76-3.55 2.51 0 3.93 13.54 3.44 13.54 12.39 0 4.64-4 8.35-10.65 8.35a15.6 15.6 0 0 1 -10.81-4.09z"/><path d="m221.78 6.69h16.59c8 0 13.68 5.64 13.68 14s-5.63 14.17-13.68 14.17h-8.78v14.83h-7.81zm15.14 21.38c4.54 0 7.2-2.91 7.2-7.39s-2.66-7.26-7.08-7.26h-7.45v14.65z"/><path d="m268.12 21.19c8.52 0 15.34 6.06 15.34 14.58s-6.82 14.57-15.28 14.57-15.34-6-15.34-14.57 6.82-14.58 15.28-14.58m.06 23.26c4.47 0 8.24-3.5 8.24-8.68a8.28 8.28 0 1 0 -16.54-.77q0 .4 0 .81a8.29 8.29 0 0 0 7.89 8.67h.41"/><path d="m8.59 75h-5.23l-1.26 3.8h-2.79l5.21-14.91h2.83l5.29 14.91h-2.79zm-2.59-8.52s-.37 1.52-.67 2.31l-1.33 4h3.92l-1.33-4c-.27-.79-.59-2.31-.59-2.31z"/><path d="m16.78 66.23h-4.89v-2.34h12.49v2.34h-4.86v12.57h-2.74z"/><path d="m26.36 63.89h8.92v2.34h-6.22v3.9h5v2.33h-5v4h6.56v2.34h-9.26z"/><path d="m38.43 63.89h2.71v12.58h6.45v2.33h-9.16z"/><path d="m49.75 63.89h2.71v14.91h-2.71z"/><path d="m56.24 63.89h8.92v2.34h-6.16v3.9h5v2.33h-5v4h6.57v2.34h-9.33z"/><path d="m68.31 63.89h4.81a7 7 0 0 1 3 .42 4.22 4.22 0 0 1 2.4 4.08 4.29 4.29 0 0 1 -2.52 4.07 3.11 3.11 0 0 1 .5.74l3.11 5.6h-3l-3-5.56h-2.61v5.56h-2.69zm5.15 7a2.16 2.16 0 0 0 2.35-2 2.81 2.81 0 0 0 0-.41c0-1.42-.61-2.3-2.73-2.3h-2.08v4.66z"/><path d="m87.23 63.89h5.09c4.59 0 7.6 2.73 7.6 7.44s-3 7.47-7.6 7.47h-5.09zm4.94 12.58c3 0 5-1.78 5-5.14s-2-5.1-5-5.1h-2.23v10.24z"/><path d="m102.75 63.89h8.93v2.34h-6.22v3.9h5v2.33h-5v4h6.54v2.34h-9.26z"/><path d="m126.57 63.64a7.74 7.74 0 0 1 5.5 2l-1.3 2a6.63 6.63 0 0 0 -4.08-1.57 4.86 4.86 0 0 0 -5 4.71 2.81 2.81 0 0 0 0 .41 5 5 0 0 0 4.65 5.33h.35a6.42 6.42 0 0 0 4.31-1.88l1.43 2a8 8 0 0 1 -5.86 2.41 7.71 7.71 0 0 1 0-15.41z"/><path d="m142.38 75h-5.23l-1.26 3.82h-2.79l5.25-14.91h2.83l5.25 14.91h-2.79zm-2.63-8.5s-.33 1.47-.63 2.31l-1.32 4h3.91l-1.33-4c-.27-.84-.58-2.31-.58-2.31z"/><path d="m148.34 63.89h4.81a7 7 0 0 1 3 .42 4.24 4.24 0 0 1 2.44 4.08 4.3 4.3 0 0 1 -2.52 4.07 3.11 3.11 0 0 1 .5.74l3.07 5.6h-3l-3-5.56h-2.64v5.56h-2.71zm5.15 7a2.16 2.16 0 0 0 2.35-2 2.81 2.81 0 0 0 0-.41c0-1.42-.61-2.3-2.73-2.3h-2.06v4.66z"/><path d="m165.25 66.23h-4.89v-2.34h12.49v2.34h-4.85v12.57h-2.71z"/><path d="m181.38 63.64a7.53 7.53 0 0 1 7.7 7.36v.24a7.71 7.71 0 1 1 -15.41.55 5 5 0 0 1 0-.55 7.53 7.53 0 0 1 7.46-7.6zm0 12.94a5.07 5.07 0 0 0 4.92-5.2.66.66 0 0 1 0-.14 4.92 4.92 0 1 0 -9.83-.44 3.23 3.23 0 0 0 0 .44 5.05 5.05 0 0 0 4.77 5.33z"/><path d="m198.52 63.64a8.11 8.11 0 0 1 5.54 1.89l-1.34 2a6.4 6.4 0 0 0 -4-1.43 4.83 4.83 0 0 0 -5.12 4.52q0 .3 0 .6a5 5 0 0 0 4.65 5.33h.35a5.61 5.61 0 0 0 3.73-1.55v-1.72h-2.33v-2.28h4.73v7.8h-2.25v-1.34a6.37 6.37 0 0 1 -4.33 1.59 7.33 7.33 0 0 1 -7.31-7.35c0-.12 0-.25 0-.37a7.53 7.53 0 0 1 7.35-7.69z"/><path d="m207.79 63.89h4.81a7 7 0 0 1 3 .42 4.2 4.2 0 0 1 2.4 4.08 4.29 4.29 0 0 1 -2.52 4.07 3.11 3.11 0 0 1 .5.74l3.07 5.6h-3l-3-5.56h-2.57v5.56h-2.71zm5.15 7a2.16 2.16 0 0 0 2.35-2 2.81 2.81 0 0 0 0-.41c0-1.42-.61-2.3-2.73-2.3h-2v4.66z"/><path d="m229 75h-5.2l-1.28 3.82h-2.8l5.28-14.93h2.84l5.27 14.91h-2.8zm-2.62-8.5s-.34 1.47-.63 2.31l-1.32 4h3.9l-1.32-4c-.27-.84-.59-2.31-.59-2.31z"/><path d="m235 63.89h5.75a4.58 4.58 0 0 1 4.79 4.36 5 5 0 0 1 0 .55 4.62 4.62 0 0 1 -4.34 4.9h-3.41v5.1h-2.71zm5.25 7.42a2.34 2.34 0 0 0 2.5-2.19 2.29 2.29 0 0 0 0-.37 2.31 2.31 0 0 0 -2.08-2.52 2.41 2.41 0 0 0 -.38 0h-2.59v5.08z"/><path d="m247.88 63.89h2.71v6.32h6.82v-6.32h2.71v14.91h-2.71v-6.25h-6.82v6.25h-2.71z"/><path d="m263.91 63.89h2.7v14.91h-2.7z"/><path d="m270.4 63.89h8.92v2.34h-6.22v3.9h5v2.33h-5v4h6.55v2.34h-9.25z"/></g></svg>