<svg xmlns="http://www.w3.org/2000/svg" viewBox="0 0 4620 9871.67"><path opacity="0.6000000000000001" d="M0 3571.67H1920V9871.67H0z"/><path d="M509 7656.45l.08-.32.33.08.32.08.08-.32.33.08.24-1 .33.09-.09.32.65.16-.49 1.95.33.08-.09.33.33.08-.08.33-.33-.09-.16.65.65.17-.25 1 .32.08-.32 1.3.32.08-.41 1.63.32.08-.32 1.3-.33-.08.17-.65-.33-.09.08-.32-.32-.08-.16.65-.33-.09.08-.32-.65-.16.09-.33.32.08.08-.32-1.29-.33.16-.65-.32-.08.24-1 .33.08-.09.32.65.17.33.08.16-.65-1-.25.08-.32.32.08.09-.32-.65-.17-.17.65-.32-.08.25-1 .32.09.25-1-.33-.08-.16.65-.33-.08-.08.32-.32-.08-.25 1-.32-.08-.09.33.33.08-.08.32-.33-.08-.08.33.32.08-.08.32-.32-.08-.25 1 .33.08-.42 1.62-.32-.08-.32-.08.08-.33-.33-.08.09-.32-.65-.17-.17.65-.32-.08-.65-.17-.16.65-.33-.08-.16.65-.33-.08.17-.65-.65-.16-.17.64-.32-.08.16-.65-.64-.16.16-.65-1-.25.08-.32.65.16.32.09.08-.33-.64-.16.49-1.95-.33-.08.08-.33.33.08.08-.32-.32-.08.08-.33-.33-.08.17-.65.65.17-.08.32 1.29.33.08-.33.33.09.08-.33.33.08.32.09.16-.65.33.08.25-1 .32.09.32.08.17-.65 1 .25.33.08.08-.33.32.08.08-.32.33.08.08-.32.32.08.33.08m-13.51 13.86l-.33-.09.09-.32-.33-.08.08-.33 1.63.41-.09.33.65.16.08-.32 1 .24-.17.65.33.08.33-1.3.65.17-.17.65-.32-.08-.25 1 .33.08-.09.33.65.16-.24 1-.33-.08-.08.33-.32-.08-.33-.09-.25 1-.32-.09.25-1-1.3-.33.24-1-1-.25.08-.32-.32-.08-.08.32-.33-.08.08-.33-.32-.08.08-.32.33.08.08-.32m12.65 4.57l.32.09-.08.32-.33-.08-.08.32-.32-.08-.17.65.33.08-.25 1 .65.16.08-.32.33.08.16-.65.65.16.32.08.17-.65 1 .25-.16.65 1 .25-.08.32 1 .25-.16.65.32.08-.16.65.32.08-.41 1.62-.32-.08-.33-.08.17-.65-1.3-.33-.17.65-.32-.08-.24 1 .32.08-.17.65-.32-.08-.65-.16-.41 1.62-.32-.08-.17.65-.32-.08-.08.32-.33-.08-1-.25-.08.33-1-.25.09-.32-.33-.09-.08.33-.32-.08-.09.32-.32-.08-.08.32-.33-.08-.65-.16-.08.32.65.17-.25 1 1.3.33.17-.65.64.16.33.09.08-.33 1.3.33.32.08.09-.32.32.08.32.08.09-.32.32.08.32.08.41-1.62.33.08.16-.65.65.16.33.09.08-.33 1 .25-.33 1.3.33.08.24-1 .65.17-.16.65.65.16-.08.33 1 .24-.16.65.32.08-.41 1.63.32.08-.24 1 .32.08-.08.33.65.16-.08.33.32.08-.41 1.62.33.08-.17.65-.32-.08-.33-.08-.16.65.32.08.08-.32.65.16-.41 1.62.33.09-.09.32.33.08-.16.65.32.08-.17.65-.32-.08-.24 1 .32.09-.25 1 .33.08-.33 1.3.65.17-.09.32-.32-.08-.32-.08-.09.32.33.08-.16.65.32.08-.25 1 .33.08-.17.65.33.08.08-.32.32.08-.08.32.33.08-.17.65.33.09-.17.65-.32-.09.08-.32-.32-.08-.17.65.65.16-.41 1.62-.32-.08-.33-.08-.33 1.3 1.3.33-.16.64.32.09-.16.65.32.08-.16.65-.33-.08-.08.32.33.08-.33 1.3.32.08-.41 1.63.32.08-.16.65.33.08-.33 1.3.32.08-.08.32.65.17-.25 1-.32-.08-.33-.08-.16.65.65.16-.17.65.33.08-.25 1 .33.08-.25 1 .32.08.09-.32.32.08-.33 1.3.33.08-.58 2.28.65.16-.08.32-.33-.08-.08.33.65.16-.08.33-.33-.09-.16.65.32.08-.57 2.28.65.16-.25 1 .33.09-.17.65.33.08-.09.32-.32-.08-.16.65.32.08-.08.33.32.08-.08.32-.32-.08-.09.33.33.08-.25 1 .33.08-.33 1.3.32.08-.08.33-.32-.08-.17.65.33.08-.09.32.33.08-.17.65-.32-.08-.08.33-.33-.09-1.62-.41-.16.65-.33-.08.09-.32-1-.25-.16.65-.33-.08-1-.25-.16.65-.33-.08-.65-.16.08-.33-.64-.16-.09.32-.32-.08-1-.25-.08.33-1.3-.33.08-.32.33.08.32.08.16-.65-.65-.16.25-1-.32-.08.24-1 .65.16.32.08.09-.32.65.16-.09.33.65.16.09-.32 1 .24.32.08.17-.65-.33-.08.09-.32-1.3-.33-.09.32-1-.24.25-1-.65-.16.08-.32-.32-.09.08-.32-.33-.08.09-.33-.33-.08.08-.32-1-.25.08-.32-.65-.17.41-1.62-2.59-.66.08-.32-2.27-.58-.08.33-.33-.08-.32-.09-.16.65-2.27-.57.16-.65-.65-.16.25-1-.65-.16.16-.65.33.08.08-.32-.32-.09.41-1.62-.33-.08.33-1.3.32.08.17-.65-.33-.08.09-.32.32.08.16-.65-.32-.08.08-.33.33.08.08-.32-.33-.08.09-.33.32.09.32.08.17-.65.32.08.17-.65-.65-.16.08-.33-.32-.08.24-1-.32-.09.08-.32-.65-.16.08-.33-.32-.08.08-.33-.32-.08.08-.32-.65-.17.16-.65-.32-.08.16-.65-.32-.08.08-.32-.65-.17-.08.33.33.08-.17.65-.32-.08-.33-.09-.08.33-.32-.08-.09.32-.32-.08-1-.25-.09.33-.32-.08-.08.32-.65-.16.08-.33-.32-.08-.09.33-.32-.09-.32-.08-.09.33-.32-.09-.08.33-.33-.08-1-.25-.08.33-.33-.09-1.29-.32-.09.32-.32-.08-.33-.08-.08.32-.32-.08-.08.32-.33-.08-.16.65-.33-.08-.16.65.32.08-.16.65-.32-.08-.65-.17-.17.65.33.08-.17.65-.32-.08-1.3-.33-.16.65 1.29.33.09-.32.64.16-.16.65.32.08-.08.33.33.08-.08.32-.33-.08-.08.33.32.08-.24 1 .32.08-.08.33.32.08-.08.32.33.09-.09.32.33.08-.17.65.65.17-.08.32.33.08-.09.33.33.08-.17.65.33.08-.25 1 .33.09-.17.65-.32-.09-.17.65-.32-.08-.16.65-.33-.08-.65-.17-.08.33 1.3.33-.17.65.33.08.08-.33 1 .25-.08.32.32.09-.08.32-.32-.08-.08.32.65.17-.09.32-.32-.08-.08.33.65.16-.09.32.33.09.08-.33.32.08-.08.33 1.3.33.08-.33.33.08-.09.33.65.16-.16.65-.33-.08-.08.32.33.09-.17.64-.32-.08-.08.33-.33-.08-.24 1-.33-.08-.08.32.32.08-.16.65.32.09-.08.32.32.08-.08.33.33.08-.17.65 1.3.33-.08.32 1.3.33.08-.33 1 .25-.16.65-.33-.08-.08.32-.32-.08-.09.32-.32-.08.08-.32-.32-.08-.08.32-.33-.08-.08.32-.65-.16.08-.33-.32-.08-.08.33-.33-.08.08-.33-.32-.08-.08.32-.65-.16.08-.33-.32-.08-.17.65-.32-.08.08-.33-.65-.16-.24 1-.25-.42-.32-.08-.09.33-.32-.09-1-.24-.08.32-1.95-.49.33-1.3-.65-.16.08-.33-.32-.08.08-.32-.65-.17-.08.33-.33-.09-.41 1.63-.32-.08-.08.32-.33-.08-.16.65-.33-.08-.65-.17-.08.33-.32-.09-.33-.08-.08.33-.32-.08-.17.64-.32-.08-.33 1.3-.32-.08-.17.65-.32-.08-.17.65-.32-.09-.33-.08-.08.33-.32-.09-.49 1.95-.33-.08-.08.32-.32-.08-.33 1.3-.33-.08-.08.32-.65-.16.08-.32-.32-.09-.08.33-.33-.08-.32-.09-.16.65.32.09-.08.32-.33-.08-.08.32.32.08-.16.65-.32-.08-.08.33.64.16-.08.32-.32-.08-.25 1-.32-.09-.17.65-.32-.08-.25 1-.32-.09-.25 1-.32-.08-.33-.09-.08.33-.32-.08-.25 1-.32-.08-.09.32-.32-.08-.32-.08-.42 1.62-.32-.08-.33-.08-.08.32.33.09-.17.64-.32-.08-.08.33-.33-.08-.08.32.32.08-.24 1 .32.08-.32 1.3-.33-.09-.08.33-.32-.08-.25 1-.33-.08-.08.32.33.09-.17.64-.32-.08-.65-.16.08-.33-.65-.16.08-.32-.65-.17-.08.33-.32-.09-.25 1-.65-.17.25-1-.65-.16-.24 1-.33-.08.17-.65-.33-.08-.33 1.3-.32-.09-.65-.16.16-.65-.32-.08-.08.32-.33-.08-.08.33-.32-.09.08-.32-.65-.17.08-.32-.32-.08.33-1.3-.65-.16.16-.65-.65-.17.17-.65-.33-.08.17-.65-.33-.08.17-.65-.33-.08-.24 1-.33-.08.33-1.3-.32-.08-.09.32-.32-.08-.25 1 .33.08-.08.32-.33-.08-.08.33-.33-.09.09-.32-.33-.08.25-1-1-.24-.09.32-.32-.08-.65-.16-.08.32-.33-.08-.32-.08-.08.32-1-.24.08-.33-.33-.08.25-1-.33-.09.17-.65-.33-.08.09-.32-.33-.08.08-.33-.65-.16.17-.65-.33-.08.09-.33-.65-.16.08-.33-.65-.16.08-.33-.32-.08-.41 1.62-.33-.08-.08.33-.32-.08-.17.64-.32-.08-.08.33-.33-.08-.24 1-.33-.08-.08.32-.32-.08-.09.33-.32-.09-.08.33-.33-.08-.08.32-.32-.08-.65-.17-.08.33-.33-.08-.16.65-.33-.09-.16.65-.33-.08-.32-.08-.08.32-.33-.08-.24 1-.33-.09.09-.32-.33-.08.41-1.63-.32-.08.16-.65.33.09.32.08.33-1.3.32.08.41-1.62.33.08.24-1 .33.08.33-1.3.32.08.49-2 .33.08.16-.64.32.08.09-.33-.65-.16.08-.33.33.09.32.08.41-1.62 1 .24.33.08.24-1-.64-.16.08-.33-.33-.08.08-.33.33.09.33-1.3.32.08.08-.33.33.09.08-.33-.65-.16.08-.33-3.89-1-.08.32-.33-.08-1-.24-.08.32-.33-.08.09-.33-.33-.08-.08.33-.32-.08-.33-.09-.08.33-.32-.08-1.3-.33-.08.32-.33-.08-1.62-.41-.08.33-.33-.09-1.62-.41-.08.33-.32-.08-.33-.09-.08.33-.33-.08-1-.25-.08.33-.33-.09-.32 1.3-.33-.08-.32-.08.08-.33.32.09.09-.33-1-.24-.08.32-.32-.08-1.62-.41-.09.32-.32-.08-.65-.16-.08.32-.33-.08-1-.25-.08.33-.33-.08-1.29-.33-.09.32-.32-.08-.32-.08-.17.65-.65-.17.17-.64-.33-.09-.16.65-.33-.08-1-.24-.08.32-.33-.08-.64-.17-.09.33-.32-.08-1-.25-.09.33-.32-.09-1.3-.32-.08.32-1.62-.41.08-.32-.32-.09-.09.33-.64-.17.08-.32-.33-.08.17-.65-.33-.08.09-.33-.33-.08-.16.65-.33-.08-.65-.17-.08.33-.32-.08-.08.32-.33-.08-.08.32-.33-.08-.32-.08-.08.32-.33-.08-.08.33-.32-.08-.08.32-1-.25.08-.32-.32-.08.16-.65-.64-.17.24-1-.32-.08.33-1.3.32.08.16-.65-.32-.08.16-.65-.32-.08.08-.33-.65-.16-.08.33-1.3-.33.17-.65.32.08.49-1.95.33.08.32.09.17-.65.65.16-.09.33.33.08-.08.32.32.08.32.09.17-.65-.33-.09.09-.32-.33-.08.08-.33.33.09.33-1.3 1 .24-.16.65.32.08.16-.65.33.09.32.08.25-1-.65-.16.08-.32-.32-.09.08-.32-.32-.08-.09.32-.32-.08-.08.33-.33-.09-.32-.08-.08.33-.33-.09-.08.33-.32-.08.08-.33-.33-.08.08-.32-.64-.17.08-.32-.33-.09.17-.64-.33-.09.17-.65-1-.24.17-.65-.33-.08.17-.65-.33-.08.09-.33-.33-.08-.33 1.3.33.08-.17.65-.32-.08-.08.32-.33-.08-.32-.08-.08.32-.33-.08-.08.33 1 .24.09-.32 1 .24-.08.33.32.08-.08.32-.33-.08-.08.33.33.08-.09.32.33.08-.33 1.3.33.09-.33 1.29-.33-.08-.08.33-.32-.09-.41 1.63-.33-.08-.32-.09-.17.65-.32-.08-.25 1 .33.08-.08.32.32.08-.08.33-.33-.08-.24 1-.33-.08-.08.32.33.08-.09.33 1.3.33-.08.32.65.17-.08.32 1 .25-.25 1-.32-.08-.17.65.33.08-.08.32-.33-.08-.08.33-.32-.09.08-.32-.33-.08-.16.65-.33-.08.09-.33-.65-.16-.08.32-.33-.08-1-.25-.08.33-.33-.08-1-.25-.08.33-.33-.09-1-.24-.08.32-.33-.08-1.62-.41-.08.33-.32-.09-1.3-.32-.08.32-.33-.08-1.94-.49-.17.65-.32-.09-.65-.16-.08.32-.33-.08-1.3-.33-.16.65-.32-.08.08-.32-1-.25-.09.33-.32-.09-1.3-.32-.08.32-.33-.08-1-.25-.08.33-.32-.08-1-.25-.08.33-.32-.09-1-.24-.08.32-.32-.08-.65-.16-.08.32-.33-.08-1-.25-.08.33-.33-.08.08-.33-.64-.16-.17.65-1.3-.33.33-1.3-.32-.08.08-.33 1 .25.33.08.08-.32.32.08.17-.65.32.08.08-.32.33.08.08-.33 1 .25.33.08.16-.65.33.08.08-.32.32.08.08-.32.33.08.08-.33.33.09.08-.33.32.08.17-.65.32.09.16-.65.33.08.32.08.17-.65.32.08.08-.32-.32-.08.08-.33-.32-.08.08-.32-.33-.09-.16.65-.32-.08-.17.65-.32-.08.08-.33-.65-.16-.25 1-.32-.08-.16.65-.33-.08-.32-.08-.17.65.33.08-.08.32-.33-.08-.32-.08-.08.32-.33-.08-.65-.16-.08.32-.32-.08-.17.65-.32-.08-.08.32-.33-.08-.32-.08-.17.65-.32-.08-.08.32-.33-.08-.32-.08-.08.32-.33-.08-.32-.08-.09.32-.32-.08-.65-.16-.08.32-.32-.08-.65-.16-.09.32-1.29-.33.08-.32-.33-.08-.24 1-.33-.08-.08.32-.32-.08-.65-.16-.16.65 1.62.41.08-.33 1.62.41.33.08.08-.32.65.16.32.08.08-.32 1.3.33-.08.32-.33-.08-.08.32-.32-.08-1.3-.33-.08.33-.33-.08-1-.25-.08.33-.33-.09-1.62-.41-.08.33-.32-.08-1-.25-.08.33-.32-.09-.65-.16-.08.33-.33-.09-1-.24-.17.65-.32-.09-.08.33-.33-.08-1.94-.49-.17.65-.32-.09-.33-.08-.08.33-.65-.17.09-.32-.33-.08-.65-.17-.16.65-.33-.08.17-.65-.33-.08-.08.32-.32-.08-.33-.08-.16.65-.32-.08-1.63-.41-.08.32-.32-.08-1-.25-.08.33-.32-.08-.08.32-.33-.08-1.62-.41-.08.32-.33-.08-2.59-.65-.08.32-.33-.08-1.62-.41-.08.32-.33-.08-.64-.16-.09.32-.32-.08-.65-.16-.08.32-.33-.08-1.62-.41-.08.33-.32-.09-1-.24-.08.32-.32-.08-.09.33-.32-.09.08-.32-.65-.17-.08.33-.32-.08-1-.25-.08.33-1.3-.33.09-.33-.33-.08-.16.65-.33-.08-.16.65-.32-.08-.09.32-.32-.08-.08.32-.33-.08.17-.65.32.09.17-.65-.33-.09.17-.65.32.09.08-.33.33.08.08-.32.32.08.08-.32-.32-.09.08-.32-.32-.08.16-.65-.32-.08.08-.33-.33-.08.17-.65-.33-.08.41-1.62-.32-.09.25-1-.33-.08.33-1.3-.33-.08.17-.65-.33-.08.25-1-.32-.08.24-1-.32-.09.24-1-.32-.08.25-1-.65-.17.24-1-.32-.08.16-.65-.32-.09.49-1.94-.32-.09.08-.32-.33-.08.33-1.3-.32-.08.16-.65-.32-.08.24-1-.32-.08.24-1-.32-.09.41-1.62-.33-.08.33-1.3-.65-.16.09-.33-.33-.08.33-1.3-.32-.08.32-1.3-.32-.08.16-.65-.32-.08.24-1 .33.09.08-.33.33.08-.09.33.33.08.08-.32 1 .24.33.08.08-.32 1.3.33.32.08.08-.33.33.09.08-.33 2.27.57.32.09.09-.33.32.08.32.09.09-.33.32.08.33.08.08-.32.65.16.32.09.08-.33 1 .25.32.08.08-.33.33.09.24-1-.32-.08.08-.32-.32-.09.24-1-.32-.08.16-.65-.32-.08.41-1.63-.33-.08.08-.32.33.08.08-.33-.32-.08.08-.32-.33-.08.25-1-.32-.08.16-.65-.33-.08.17-.65-.33-.08.25-1-.32-.08.24-1-.32-.08.24-1 .08.21.16-.65.33.08.08-.32-.32-.08.24-1-.65-.16.17-.65-.33-.08.41-1.63-.65-.16.33-1.3-.32-.08.08-.33-.33-.08.09-.32.32.08.08-.32-.32-.09.24-1-.32-.08.16-.65-.32-.08.33-1.3-.33-.08.17-.65-.3-.07.17-.64.32.08.33.08.08-.33-.33-.08.08-.32-.32-.08.25-1-.65-.16.08-.33-.32-.08.32-1.3.33.09.16-.65-.32-.09.08-.32.32.08.17-.65.32.08.33.09.16-.65.32.08.33-1.3-.32-.08-.17.65-.32-.08-.08.32-.33-.08-.08.32-.32-.08-.25 1-.32-.09.24-1-.32-.08.08-.33-.32-.08.32-1.3-.32-.08.08-.32.33.08.08-.33-.33-.08.09-.32-.33-.09.16-.64-.32-.09.08-.32-.32-.08.24-1-.32-.08.41-1.62-.65-.17.25-1 .32.08.33.08.08-.32.32.08-.08.33.32.08-.08.32.33.08-.09.33.65.16.33.08.08-.32-.65-.16.16-.65-.64-.17.16-.65-.32-.08.08-.32-.33-.08.09-.33-.65-.16.08-.33.32.08.17-.65.32.09.25-1-.65-.16.08-.33-.32-.08.08-.32-.33-.08.25-1-.65-.16-.08.32-1-.24.16-.65-.33-.08.41-1.63.33.08.08-.32.33.08.08-.32-.65-.17-.08.33-.65-.17.24-1-.32-.08.08-.33-.65-.16.25-1-.33-.09.17-.65-.65-.16.08-.32-.32-.09.24-1 .33.08.16-.65.33.08.08-.32.32.08.33.08.08-.32.32.08.17-.65-.65-.16.08-.33-.32-.08.08-.32-.65-.17.16-.65-.65-.16.09-.32-.33-.09.17-.65.32.09.08-.33-.32-.08.24-1-.32-.09.24-1 .33.08.08-.32-.32-.08.08-.33.32.08.25-1 .32.08.09-.32.32.08.16-.65-.65-.17.17-.64-.33-.09-.08.33-.65-.17.17-.64-.33-.09.25-1-.65-.16.33-1.3-.33-.08.17-.65.32.08-.08.32.65.17-.08.32.32.08-.08.33 1 .24.17-.65-.65-.16.08-.32 1.62.4-.08.33.65.16.32.09.33-1.3-.32-.09.08-.32.32.08.33.08.08-.32.32.08.33.08.16-.65-.32-.08-.33-.08-.08.32-.32-.08.08-.32-.65-.17-.08.33-1.3-.33.08-.32.33.08.08-.33.32.09.17-.65-1.3-.33-.16.65-.33-.08-.32-.09-.09.33-.32-.08.33-1.3.32.08.25-1 .32.08.33.08.08-.32.32.08.09-.33.32.08.08-.32-.32-.08.08-.33 1 .25.33.08.32-1.3-.32-.08-.16.65-1-.25.33-1.29-.32-.09.08-.32-.33-.08-.08.32-.32-.08-.08.32-.33-.08-.24 1 .32.08-.08.32-.33-.08-.08.33-1-.25.08-.32-.65-.17-.24 1 .32.08-.41 1.62.32.08-.32 1.3.32.08-.16.65.32.08-.08.33-.32-.08-.09.32-.32-.08.08-.32-.32-.09.16-.65-.32-.08.41-1.62-.33-.08.08-.33-.32-.08.08-.32-.65-.17.17-.65-1-.24.08-.33-.64-.16.08-.33-.33-.08.09-.32-.65-.17.16-.65-.32-.08.08-.32-.65-.17-.08.33-.33-.08-.08.32-.32-.08-.09.32-.32-.08-.08.33-.33-.08-.82 3.24-.32-.08-.49 1.95.32.08.25-1 .32.08-.32 1.3-.33-.09-.32-.08-.09.33-.32-.09-.25 1 .33.08-.17.65.33.08-.17.65-.32-.08-.08.32-.33-.08-.08.33.33.08-.09.32-.32-.08-.08.33-.33-.09-.32-.08-.16.65-.33-.08-.16.65.32.08-.08.33.65.16-.33 1.3.33.08-.25 1-.33-.08-.41 1.62.33.09-.16.65.32.08-.08.32-.33-.08-.16.65.32.08-.08.33-.32-.09-.08.33-.33-.08-.08.32-.33-.08-1.62-.41-.08.33-1.3-.33.09-.33-.65-.16-.09.32-.32-.08-.65-.16-.08.32-.33-.08-.16.65-.32-.08-.09.32-.32-.08.08-.32-.65-.17.09-.32-.33-.08.16-.65-.32-.09.33-1.29-.33-.09-.08.33-1.3-.33.09-.32-.65-.17.16-.65-1.62-.41-.08.33-.33-.08-.08.32-.32-.08.08-.32-.65-.17.33-1.3-.33-.08.17-.65-.33-.08.25-1-.65-.17.08-.32-.65-.17.08-.32-.32-.08.08-.33-.65-.16.17-.65-.65-.16.24-1-.64-.16.08-.33-.33-.08.41-1.62-.32-.08.16-.65.33.08.16-.65.65.16.32.09.17-.65-.33-.09.25-1-.32-.08.08-.33-.65-.16.16-.65.33.08.08-.32-.33-.08.09-.33-.33-.08.08-.33-.32-.08.08-.32-.32-.08.16-.65-.32-.08.08-.33-.33-.08.41-1.62-.32-.09.08-.32.33.08.24-1-.65-.17.08-.32-.64-.17.08-.32-.33-.08.17-.65.32.08.08-.32-.32-.09.08-.32.33.08.32-1.3-1.29-.32.08-.33-.33-.08-.08.32-.32-.08.08-.32-.33-.08.09-.33-.33-.08.08-.33-.32-.08.33-1.3.32.09.17-.65-.33-.09.16-.64-.32-.09.08-.32-.32-.08.24-1 .33.08.08-.32.32.08.09-.32.32.08.08-.33.33.09.33-1.3-.33-.08.08-.33-.65-.16.09-.33-.33-.08.08-.32-.32-.09.24-1-1-.25.08-.32-.32-.08.16-.65-.32-.08.08-.33-.32-.08.57-2.27-.65-.17.16-.64.33.08.32.08.09-.33.32.09.08-.33-.32-.08.24-1 .33.08.32.08.17-.65.32.08.32.08.09-.32.32.08.41-1.62-.32-.08.32-1.3-.64-.17.16-.65-.33-.08.33-1.3-.32-.08.08-.32.32.08.25-1-1-.25.08-.32-.33-.09.09-.32.32.08.08-.32 1.3.32-.49 1.95.32.08-.24 1 .65.16-.09.33.33.08-.08.32-.33-.08-.16.65.65.16.16-.65.33.09.08-.33 1.62.41.32.08.09-.32.64.16-.08.33.65.16-.08.32 1.95.5-.09.32.65.16-.08.33 1.62.41-.08.32.65.17.25-1 .32.08.08-.32.65.16.33.09.08-.33 1 .25.33.08.16-.65-1.3-.33.08-.32-.32-.08.25-1 .32.08.16-.65.33.09.08-.33 1 .25-.49 1.94.33.09.08-.33.32.08-.08.33.65.16.32.08.33-1.29-.32-.09.24-1 .33.08.08-.32.65.16-.25 1 .65.17.08-.33.65.17-.16.65.65.16-.09.33.33.08-.16.65.64.16-.08.32.33.09-.09.32 1.3.33.08-.33.65.17-.08.32.65.17-.08.32.32.08-.08.33.33.08-.09.32.65.17-.08.32.32.08-.16.65.32.09-.08.32.33.08-.08.33.32.08-.08.32 1 .25-.08.32.32.09-.08.32.65.16-.16.65.65.17-.09.32.33.08-.08.33.32.08-.08.33.65.16-.08.32.64.17.17-.65.65.16.32.08.08-.32 1.63.41-.09.32.33.08-.08.33.32.08-.16.65-.33-.08-.16.65 1.62.41-.16.65-.33-.08-.32-.09.08-.32-1-.25-.09.33-.32-.08-.32-.09-.09.33.33.08-.08.32-.33-.08-.16.65.32.08-.08.33 1 .24-.08.33 1.62.41.09-.33.32.09.08-.33.33.08.49-1.94.32.08.17-.65.32.08.16-.65.65.16.33.09.08-.33 1.3.33-.08.32.32.09.32.08.09-.33-.33-.08.08-.32 1.3.32.33.09.08-.33.32.08.08-.32-.64-.17.81-3.24.33.08.16-.65.33.08.24-1 .33.08.32.08.08-.32.33.08.16-.65 2.27.57.33.09.08-.33.32.08.33.09.08-.33.33.08-.09.33.33.08.08-.33 1 .25.33.08.08-.32.32.08.09-.33.32.09.32.08.09-.33.32.09.08-.33 2.6.66.32.08.09-.33.32.09.08-.33.33.08.08-.32.32.08-.08.32 2 .5.08-.33 1 .25.33.08.08-.33 1.3.33-.09.33.33.08.08-.33.32.09-.08.32 1.3.33.33.08.16-.65.32.08-.16.65.32.08.25-1 .32.08.09-.32.32.08-.08.32.65.17.08-.33.65.17.32.08.08-.33.33.09.08-.33 1.3.33-.08.32.65.17.08-.33.65.17.32.08.08-.33 1.63.41-.25 1 .32.08-.41 1.62.33.08-.25 1 .65.16-.08.33.32.08-.16.65.65.16-.17.65-.32-.08-.08.32-.33-.08-.08.33-.32-.08-.17.64.33.09-.08.32.32.08-.33 1.3.33.08.08-.32.32.08-.24 1 .32.09-.16.65.65.16-.09.32.33.09-.17.65.33.08-.16.65-.33-.09-.08.33-.33-.08-.08.32-.32-.08-1.3-.33-.08.33-.33-.08-1.29-.33-.09.32-1.62-.41.08-.32.33.08.32.08.09-.32-1-.25-.08.33-.32-.09-.09.33-.32-.08.08-.33-.32-.08-.09.32-1-.24.08-.33-.32-.08-.25 1-.32-.09-1-.24-.09.32-.32-.08-1.3-.33-.08.33-1-.25.08-.32-.33-.08-.08.32-.32-.08-.08.32-1-.24-.08.32-.32-.08-1.3-.33-.08.33-.33-.08-1.3-.33-.08.32-.32-.08-.33-.08-.08.32-.32-.08-1.3-.33-.08.33 1 .24-.08.33-.33-.08-.08.32-.32-.08-.33-.08-.08.32-.32-.08-.09.33.65.16-.08.32.33.09-.09.32 1.3.33-.08.32.65.17.08-.33.32.08.09-.32.32.08.25-1 .32.08.33.08.08-.32.32.08.33.08.08-.32 1.62.4-.08.33.32.08-.16.65.32.08.25-1 .32.08.09-.32.32.08.32.08.09-.32.32.08.33.08.08-.33 1.3.33.32.08.08-.32.33.08.08-.32.32.08-.08.32.33.08.08-.32 1 .25.32.08.09-.33.65.17.32.08.08-.33 1 .25.32.08.08-.32.65.16.32.08.09-.32 1 .24.32.09.09-.33 1.29.33-.08.32.33.09.08-.33.32.08.08-.32.33.08.32.08.09-.32 1 .24.32.09.09-.33.32.08.08-.32.33.08-.09.32 1 .25.08-.32 1.3.32-.08.33.32.08.32.08.17-.65.32.08.08-.32.65.16.33.09.08-.33.65.16.32.09.08-.33.65.17.33.08.08-.33.32.09-.08.32.33.08-.09.33.65.16.09-.32.32.08.08-.33 1 .25.32.08.08-.32 1.3.32.32.09.09-.33.32.08.08-.32.65.16.33.08.08-.32.32.08.33.08.08-.32.32.08.33.08.08-.32.32.08-.16.65 1.62.41.08-.33 1.3.33.33.08.08-.32.32.08.17-.65 1 .25.32.08.09-.32.32.08.32.08.09-.33 2.59.66.33.08.08-.32.32.08.09-.33.64.17-.08.32.65.17.08-.33 1.63.41-.09.33 1 .24.08-.32.32.08-.08.32.33.09.08-.33.65.17-.25 1 1.3.33-.08.32.32.08-.41 1.63.32.08-.16.65-.32-.08-.33-.09-.08.33-.32-.08-.33-.08-.08.32-.33-.08-.16.65-.32-.08-.33-.09-.08.33-.32-.08-.09.32-.32-.08-.25 1-.32-.08-.17.65-.32-.08-.08.32-.33-.08-.08.33-.32-.09-.09.33-.32-.08-.08.32-.33-.08-.08.32.33.09.32.08.08-.33.33.08.08-.32.32.08.09-.32 1.29.33.33.08.16-.65.33.08.41-1.62.32.08-.08.32.32.08.09-.32.32.08-.16.65 1 .25.08-.33.33.08.08-.32.32.08.08-.32.33.08.16-.65-1-.25.08-.32 1 .25.33.08.16-.65-.65-.17.41-1.62-.32-.08.16-.65-.32-.08.33-1.3.32.08.08-.32-.65-.17-.16.65-1.3-.33.08-.32-.32-.08.08-.33.65.17.33.08.08-.33-.65-.16.08-.32.65.16.32.08.09-.32.32.08.08-.33.33.09.16-.65.33.08.08-.33 1 .25-.08.32.32.09-.08.32.33.08-.33 1.3.65.17-.33 1.29.65.17-.08.32.32.08-.57 2.28.32.08-.08.32.32.09-.08.32-.32-.08-.17.65.33.08-.17.65.33.08-.17.65.33.08-.41 1.63.32.08-.08.32.32.08-.24 1 .32.08-.58 1.79.33.08-.17.65.33.08-.08.33.32.08-.33 1.3.33.08-.25 1 .33.08-.09.33-.32-.08-.25 1 .33.08-.17.65.33.08-.17.65.33.09-.25 1 .33.08-.33 1.3.32.08-.08.33.33.08-.33 1.3.32.08-.08.32-.32-.08-.17.65.33.08-.17.65.33.08-.25 1 .33.08-.17.65.33.08-.17.65.33.08-.33 1.3.32.08-.24 1 .32.08-.16.65.32.08-.16.65.32.08-.41 1.62.33.09-.41 1.62.64.16-.08.33.65.16-.08.33.32.08.09-.33.32.09.08-.33.65.16-.08.33.32.08-.33 1.3.33.08.08-.32.33.08.32.08.08-.32-.65-.17.17-.65.32.09.08-.33.33.08.33-1.3.32.09-.08.32.32.08-.16.65.32.08-.08.33 1 .24.09-.32.32.08-.08.33.32.08.25-1 .32.09.09-.33.32.08-.25 1-.32-.08-.08.32.32.08-.08.33-.32-.08-1.95-.5-.16.65.32.08-.08.33 1 .24.08-.32 1.3.33-.08.32.32.08-.08.33-.32-.08-.33-.08.08-.33-.64-.16-.25 1 .32.08-.24 1 .32.08.08-.33.65.17-.08.32-.32-.08-.09.33.65.16-.16.65-.33-.08.09-.33-.65-.16-.08.32.32.08-.08.33.32.08-.08.33-.32-.09-.09.33-.32-.08-.66 2.59-.32-.08-.16.65.32.08-.08.33-.33-.08-.16.64-.33-.08-.64-.16-.17.65-.32-.08-.33-.09.09-.32-1.3-.33-.08.33-.33-.09-.16.65.32.09-.16.64.32.09-.24 1 .64.16-.16.65.33.09-.09.32.33.08-.25 1 .33.08-.09.32.33.09-.08.32-.33-.08-.16.65-.33-.08-.16.64.32.09-.24 1 .32.08-.24 1 .32.08-.41 1.62.32.08-.24 1 1.62.41.08-.33.65.17-.08.32.32.08-.08.33.33.08-.09.32.33.09-.08.32.32.08-.08.33.32.08-.16.65.32.08-.16.65 1.3.33-.17.65.33.08-.17.65.33.08-.08.32.32.09-.08.32-.33-.08-.49 1.95 1 .24.09-.32.32.08.33.08.08-.32 1.94.49-.08.32.33.09.08-.33.65.17-.09.32 1.3.33-.08.32.32.08-.16.65 1 .25-.16.65.32.08-.16.65.32.08-.08.33.65.16-.16.65.32.08-.24 1-.33-.09-.25 1-.32-.08-.16.64-.33-.08-.08.33.32.08-.08.32-.32-.08-.08.33.32.08-.08.32-.33-.08-.32-.08-.08.32-.33-.08-.08.33.33.08-.09.32-.32-.08-.33-.08-.24 1-.33-.08-.08.33-.32-.09.08-.32-.32-.08-.09.32-.32-.08-.33-.08-.08.32-.32-.08-.08.33-.33-.09-.32-.08-.08.33-.65-.17.08-.32-.33-.08.25-1-.65-.16-.16.65.32.08-.08.32-.32-.08-.09.33-.32-.09.08-.32-1.62-.41.08-.32-.32-.09.16-.65-1.3-.32-.24 1 .32.08-.08.33.65.16-.08.33 1 .24-.08.33.65.16-.17.65.33.08-.33 1.3-.33-.08-.32-.08-.25 1 .33.08.16-.65.33.08-.09.33.33.08.16-.65.33.08-.08.33.32.08.16-.65.65.16-.08.33.32.08.09-.32.32.08.33-1.3.32.08.33.08.16-.65.33.09.08-.33.32.08.33.09.08-.33 1 .25-.08.32.32.08-.16.65.33.09.08-.33.32.08.33.08.08-.32.32.08.08-.32.33.08.24-1 .33.08.32.08.09-.33-.65-.16.16-.65.33.08.16-.65-.33-.08.17-.65-.33-.08.17-.65.32.08.25-1 .32.08.09-.32.32.08.25-1 .32.09.08-.33.33.08.32.09.33-1.3-.32-.08.08-.33-.33-.08.08-.33 1 .25.32.08.08-.32.33.08.08-.33-.65-.16-.08.33-.32-.09.08-.32-.33-.08-.08.32-1-.24.08-.33-.65-.16.17-.65.32.08.32.08.33-1.3.33.09.16-.65.32.08.17-.65-.33-.08.09-.33.65.17.32.08.16-.65.65.16.33.08.08-.32.65.16.16-.65-.65-.16.25-1 .32.08.09-.33.32.09-.08.32.65.16.08-.32.65.16.32.09.08-.33-.32-.08.08-.33-.32-.08.08-.32.32.08.17-.65.32.08.17-.65.32.09.33.08.08-.33.32.08.08-.32.65.16.33.09.08-.33.65.17.32.08.08-.33.65.17-.08.32.65.17.08-.33 1.3.33.32.08.09-.32.64.16-.08.32.33.09-.09.32.33.08.24-1 .65.16.33.09.08-.33.32.08.09-.32.32.08.08-.32.33.08-.08.32.64.17.09-.33.32.08.08-.32.33.08-.09.32.33.09.32.08.17-.65 1 .25.33.08.08-.33.32.08.08-.32.33.08.08-.32.33.08-.09.32.65.17.08-.33.65.17.33.08.08-.33.65.17.32.08.08-.32.65.16.33.08.08-.32.32.08-.08.32.33.09.08-.33.32.08.33.09.08-.33.32.08.09-.32 1.29.33.33.08.08-.33.65.17.32.08.08-.33.65.17.33.08.08-.32.32.08-.08.32 1 .25.09-.33.32.09.17-.65.64.16-.08.33 1.3.32.08-.32.33.08.08-.32 1 .24.33.08.08-.32 1 .25.33.08.08-.33.32.08-.08.33 1 .24.33.09.16-.65.33.08.32.08.08-.32.33.08-.09.32.33.09.08-.33.33.08.32.08.16-.64 1 .24-.08.33.32.08.08-.33.65.17.32.08.17-.65.32.08.33.08.08-.32.32.08-.16.65.33.08.08-.32 1.29.33.33.08.16-.65.33.08.08-.32.32.08.09-.33.32.09.41-1.63.32.08.17-.65.32.09.09-.33.32.08.32.09.09-.33.32.08.33.09.08-.33.32.08.33.09.08-.33.32.08.33.08.08-.32.32.08.09-.32.32.08-.33 1.3.33.08-.17.65.65.16-.08.33.32.08.5-1.95-.33-.08.33-1.3-.65-.16.57-2.28.33.09-.08.32.32.08.08-.32.33.08-.08.33.64.16.09-.33.32.09.25-1-.33-.08-.08.33-1-.25.24-1 .33.08.33-1.3.32.08.33.08.08-.32-.65-.17.25-1 1 .25-.25 1 .33.08.16-.65.33.09.08-.33-.33-.08.08-.33-.64-.16.08-.32.32.08.33.08.08-.33.32.09.17-.65-.65-.17.16-.65.33.09.32-1.3.33.08.32.08.17-.65-.33-.08.25-1 .32.08.09-.33-.33-.08.25-1 .32.08.09-.32.32.08.32.08.09-.33.32.09.08-.33.33.08.16-.65.65.17.32.08.33-1.3.33.08.08-.32.32.08.17-.65.32.08.08-.32.33.08.32.08.17-.65.32.09-.08.32.65.16.32.09.17-.65.32.08.33.08.08-.32.32.08-.16.65.65.16-.09.33.33.08-.17.65.33.08-.08.32 1.29.33-.08.33.33.08-.09.32.33.09-.17.65.65.16-.24 1 .32.09-.33 1.29-.32-.08-.33-.08-.08.32-.32-.08-.17.65.65.17-.08.32-.32-.08-.65-.17-.08.33-.33-.08-.08.32-.32-.08-.65-.16-.09.32-.32-.08-.33-.08-.08.32-.32-.08-.08.32m4.28 6.27l.65.16-.25 1 .65.16-.16.65-.72-.32-.08.32-.32-.08.16-.65-.32-.08.08-.33-.33-.08.25-1m-69.09 9.9l-.32-.08.16-.65-.32-.08.24-1 1 .25-.16.65.33.08-.25 1-.33-.08-.16.65-.32-.08.16-.65m-6.89-1.4l-.09.33.65.16-.16.65-.33-.08-.08.32-.32-.08-.08.33-.33-.08-.08.32.32.08-.08.33.33.08-.17.65-.32-.08.08-.33-.32-.08.08-.33-.33-.08.25-1-.33-.08.09-.33-.65-.16.08-.33-.32-.08.08-.32-.33-.09.17-.64.32.08-.08.32.32.08.09-.32.32.08.32.08.17-.65-.65-.16.08-.32.65.16.33.08.08-.32-.33-.09.09-.32.32.08.16-.65.65.17.33.08.08-.33.32.09.09-.33.64.17-.08.32.65.16-.08.33.32.08-.16.65-.33-.08-1-.25-.16.65.32.08-.08.33-.32-.08-.17.65-.32-.09-.09.33-.32-.08-.32-.09m1.37 1.39l-.32-.08.08-.33.32.08.17-.65.32.09-.08.32.32.08-.16.65.33.08-.09.33-.32-.08-.08.32.32.08-.08.33.32.08-.08.32 1 .25.17-.65.32.08.08-.32-.32-.08.16-.65.33.08.08-.33-.32-.08.32-1.3.65.17-.08.32.33.08-.17.65.65.17-.08.32.32.08-.08.33.33.08.32.08.08-.32.33.08-.17.65.33.08-.17.65-.32-.08-.08.32-.33-.08.08-.32-.32-.09-.25 1-.32-.08-.65-.17-.08.33-.33-.09-.08.33-1-.25.08-.32-.32-.08.08-.33-1.3-.33.08-.32-.32-.08.08-.33-.65-.16.08-.33.33.09.32.08.08-.33-.32-.08.08-.32m2.91 3.5l1 .24-.33 1.3-.33-.08-.64-.17.08-.32-.33-.08.17-.65.32.08.08-.32m51.37 28.87l-.32-.09.08-.32-.32-.08.08-.33.32.08.17-.64.32.08.33.08.08-.33.32.09-.08.32.32.08.17-.65.32.09-.08.32.65.17.08-.33.33.08.08-.32-.33-.08.09-.33.32.08.25-1 .32.08.25-1 .32.08.33.08.08-.32.32.08.08-.33.33.09.08-.33.33.08.24-1 1 .25-.25 1-.32-.08-.33-.08-.08.32.65.16-.25 1-.32-.08-.33-.09-.08.33-.32-.08.08-.33-.65-.16-.17.65 1.3.33-.16.64.32.09-.24 1 .32.08-.33 1.3.33.08-.25 1 .32.08-.24 1 .32.08-.24 1-.33-.08-3.89-1-.08.33-1.3-.33.08-.33-.32-.08-.08.33-.33-.08-.32-.09-.08.33-.33-.08.08-.33-.32-.08.16-.65.33.08.33-1.3.32.09.16-.65m-52.35 32.35l.33-1.29.33.08-.33 1.3.32.08.08-.33.33.09.08-.33.32.08.33.08.16-.64.33.08-.08.32.32.08.32.09.25-1 .33.08-.09.33.33.08.32-1.3.33.08.08-.32.65.16-.08.33.32.08-.08.32.65.17.08-.33.65.17.33.08.08-.32.32.08.08-.33-.32-.08.08-.32.33.08.32.08.08-.32-.32-.09.08-.32.32.08.25-1-.32-.09.08-.32-.33-.08-.08.32-.32-.08.16-.65.33.08.32.09.16-.65.65.16-.16.65 2.92.74-.08.32.32.08-.16.65-.33-.08-.08.33.32.08-.08.32.65.17-.08.32.65.16.08-.32 1.3.33.32.08.08-.32.33.08.08-.33.65.17-.08.32.32.08-.41 1.63.32.08.33.08.08-.32.32.08-.08.32.33.08-.08.33.32.08-.58 2.27-.32-.08-.08.33-.33-.09-.32-.08-.08.33-.65-.17.08-.32-.32-.08-.33 1.29-.33-.08-.08.33.33.08-.25 1 .32.09-.08.32.33.08-.08.33.32.08-.08.32.32.09-.08.32.33.08-.17.65.32.08.09-.32.32.08.33.08.32-1.3.33.09.32.08.08-.33.33.09.08-.33.32.08.33.08.08-.32.33.08.08-.32.32.08.17-.65.32.08.08-.32.33.08.08-.33 1 .25.33.08.08-.32.32.08.33.08.08-.32.32.08.33.08.16-.65.33.08.08-.32.32.08.09-.32.32.08-.08.32 1.3.33-.09.33.65.16-.08.32-.38-.16-.24 1-.33-.09-.08.33-.32-.08-.17.65-.32-.09.08-.32-.32-.08-.08.32-.33-.08-.65-.16-.08.32 1.3.33-.08.32-.33-.08-.08.33-.33-.09-.32-.08-.41 1.63-.32-.09-.09.33-.32-.08.08-.33-.32-.08-.17.65.33.08-.09.33.65.16-.08.32-.32-.08-.65-.16-.08.32.32.08-.16.65.32.09-.25 1-.32-.08-.25 1-.32-.08-.08.32.32.09-.08.32.32.08-.32 1.3.32.08-.08.33-.33-.08-.24 1-.33-.08-.24 1-.33-.08-.24 1-.33-.08-.41 1.63-.32-.09-.17.65-.32-.08-.08.32-1.3-.32.16-.65-1.29-.33-.17.65-.32-.08-.33-.08-.08.32-.32-.08-.08.32-.33-.08-.08.33-.33-.09-.32-.08-.16.65-.33-.08-.16.65-1-.25.09-.32-.65-.17.08-.32-.32-.08.08-.33-.65-.16-.08.32-.33-.08-.08.33-.32-.09-.17.65-.32-.08-.25 1-.32-.08-.08.33-.33-.08-.08.32-.33-.08-.08.32-.65-.16.09-.33-.65-.16.08-.32-.65-.17.08-.32-.32-.08-.08.32-.65-.16.16-.65-.65-.17.09-.32-.65-.17.08-.32-.33-.08.09-.33-.65-.16.08-.33-.65-.16.08-.32-.32-.09.08-.32-1.3-.33-.08.33-.32-.09.08-.32-.32-.08.08-.33-.33-.08.08-.32-.64-.17.16-.65-2.27-.57.08-.33-1-.24.08-.33-.65-.16.08-.33-1.94-.49.33-1.3.32.09.41-1.63.65.17.32.08.09-.33-1.3-.32.08-.33.33.08.08-.32 1.29.33.33.08.08-.33-.32-.08.16-.65-.32-.08.41-1.62-.33-.08.08-.33-.32-.08.16-.65.65.16-.08.33.33.08.16-.65.32.08.58-2.27.32.08.08-.32-.32-.08.08-.33-.32-.08.08-.32-.32-.09.16-.65.32.09.09-.33.64.17.33.08.08-.33.32.08.09-.32-.33-.08.09-.33.32.09.16-.65.65.16.33.08.08-.32-.65-.17.08-.32-.32-.08.08-.33.32.08" fill="#fc0" fill-rule="evenodd"/><path d="M378.05 7674.87l-2.24.27-.56.18-1.54.7-1.79 1-1.05.84-1.34 1.32-2.24 2.77-1.07 1.56-.28 1.19-.34.5-8.8 9.18-1.77 2.19-9 13.94-2.92 3.89-6.78-1.25-3-5.44-.38-5.48 1.15-3.48-1.74-.11-7.22-2.9-1.91-2.6-.37-.35-.52-.29-11.15-3.84-2.1-1 .2-3.55 1.17-4.37 1.38-4 1.1-4 2.07-3.62 1-1.32 1.75-1.1 1.68-.82 3.25-1.39 1.54-1 .82-.74 1-1.18 2.43-3.58.73.43 7.33 2.85.53-.24 2.8-8.22 16.86 3.41 1.77-.74.43-.05 13.34 6.58.44.64 1.71 3.2 1.19 3.1.83 4.19v.74h.41l1.18.7.08 1.34m57 25.44l-1.44-1.65 1.78-1.5 2.44-7.87 1-.15 1.57 1.23 2.45 1 3.65 1.38 1.08.24 1.17.07 2.69.4 10.2 2.43 2.81.4 15 2.1-.29 2.19-2.59 11.8-.55 2.26-.7.82 1 .2 1.19.11 1.82-.2 1.22-.43 4.29-2.13-.49-1.3-.55-3.46-.47-1.5-.75-1.37-.15-1.17v-.35l.41-.7v-.48l1.77-1.31.52.52.92 1.89.41.62.35.34.51.19 2.35.34 5.31.74v-.21l3.2.44.72-5.07 2.28.32.09-.61h.16l.06-.5h-.16l.07-1 5.24.25-.14 1.13 1.2.15 8.87 1.82 1.8.51 1.7.62 1.73 1 1.34 1.15.8 1 1 1.79 2 2.94.23.6v.92l-.32 1.78-.43.74-.47.55-1.39 1-.59.6-.58.89-.44 1.21-.45 2.39v1.79l.39.12.12-.17.84.46-.41 1.48-.38 1.68h-.11l.09.34-.23.83-2 5.25-.16 1.09-.15.16.15.25-1.33.94-1.87 1.32.26.7-.26-.2-.36-.05-4.68-.19-2.35-.8-1.23-.25-1.45-.08-3.21.09h-1.65l-2.19-.54-2.25.14.11-1.26-.46-.35-.79-.22-1-.11-.68.61.13-1.27-1.59-1.72.37-.36-.23-.28-.39.38-1.61-1.71.23-.37-.68-.38-1.69-.64-1.53-.32-1.4-.09-2.52.16-1.66-.05-3.06-.9-1.07-.08h-2.57l-1.13-.21-.92-.33-.82-.5-1.3-1.15-2.45-2.84-1.22-1-1.16-.56-2.71 1.27-3.12 1.19-1.22.26-3.82 2.45-1.37-1.42-3.71-4.84-5.23-6.38-2.67-3.51-1.6-2.3-6.57-7.65m-33.93-52.19l-.23.07-9.51 2.77-6.77 1.16-9.55 3.09-2.82 5.77-13.34-6.58.89-5.68.1-.24L363 7645l-.07-.08 1.06-1.23L369 7640l.44-.21 3-.53 3.23-2.46 4.6-3.24 3.5-2.47 4.25-2.35 5.41-2.45 1.23-1.1.48-.42 8.63-.28-4.2 18.19 1.58 5.4m19.58-.13l-2.27.4-6.33 1.82-2.13-.5-4.35-2-2.61-1-1.27 1.18-.62.26-1.58-5.4 4.2-18.19 19.39-.44 12.11-.27 4.16-.08-.12.39.14.82-.08.93.11 4.85.67.9.07.26.46.55-1 .92-.55.94-1.18 4-1.07 3.23-.73 2.66-1.85 3.05-5.12-.1-8.43.85m-19.22 18.44l10.72-2.68 7 1.79 5.61 1.88-3 7.95-18.18-6.69-.28-.2-1.85-2m32.77-19.19l1.85-3.05.73-2.66 1.07-3.23 1.18-4 .55-.94 1-.92-.46-.55-.07-.26-.67-.9-.11-4.85.08-.93-.14-.82.12-.39 12.64-.31 4.25 1.36 1.33.36 4.21 3.72 1.79 4.81.49 2.65.59 4.19.17 1.35.07 4.27.74 2.08 1.23 1.61 2.71 1.86 4.24 1.39 1.28 2.46-.8.31-2.73 1.36-.62.16-3.22 1.41-3.19.65-3.3.3-2.65-.31h-1.61l-.72.18-1 .72-1.49.21-1.66 1.12-2 .45-2.52.73-2 .73-.65.34-5.81-8.05v-6l-.17-.51-.64-.64-.42-.76-.29-.26-.46-.12-2.9-.31m-.64 51.42l1.44 1.65-.87.74-3.05 6-8.81 4.15-4.32-.73-4.36-1.42-2.12-.71-2.69-1.11.11-1.45.43-.17 2.94-7.83 1.95-4.89 1.5-4.58.32-.44 1.8.94 2.08 1.42 2 .92 3 1 4.17 2.13 1.54 1.19 1.06 1 1.94 2.21m-17.53-10.79l-1.51-1-.37-.36-1-1.39-.71-.74-2.55-2.23-4.21-1.41-1.52-.48-2.85-1.56-6.24-3 2.36-4.63 1.61-3.4-.14-.57.61-.14 1.92-.49 1.85 2 .28.2 18.18 6.69-.71 1.91-2.35 6.21-.22.23-.19-.08-1.15 2.67-1.09 1.56m5.71-12.5l3-7.95 2 .68 6 1.42.51.41.39.28.5 1.54 1.62 4.18 1.47 9.8h-.19l-3-.73-2.81-1.29-2.14-1.49-2.29-2.45-2.87-1.46-3-1.06.71-1.91m11.82 23.29l-1.94-2.21-1.06-1-1.54-1.19-4.17-2.13-3-1-2-.92-2.08-1.42-1.8-.94 1.09-1.56 1.15-2.67.19.08.22-.23 2.35-6.21 3 1.06 2.87 1.46 2.29 2.45 2.14 1.49 2.81 1.29 3 .73h.19l.53 3.56-2.44 7.87-1.78 1.5m-27.88-17.94l4.21 1.41 2.55 2.23.71.74 1 1.39.37.36 1.51 1-.32.44-1.5 4.58-1.95 4.89-2.94 7.83-.43.17-.11 1.45-10.64-5.41-4.2-2.12-2.57-2-.24-.31 2.53-1.39 4.13-3.09 2.43-1.5-.06-.3 1.65-.37v-.25l.66-.91 1.25-3.19 2.26-4.26-.73-.33.43-1.08m-27.66-5.85l15.05-.17 2 1 6.24 3 2.85 1.56 1.52.48-.43 1.08.73.33-2.26 4.26-1.25 3.19-.66.91v.25l-1.65.37.06.3-2.43 1.5-4.13 3.09-2.53 1.39-2.67 1.21-2.84-2.76-2 .72-.77.39-5.4-5.34-.6-.44-8.4-8.3-1.16-.94 2.24-2.77 1.34-1.32 1.05-.84 1.79-1 1.54-.7.56-.18 2.24-.27m22.82-26.68l-.34 9.79-.22 1.12.33 2.12-.11.47-.4.9.12.08v.14l-.72 4.11-.61.14.14.57-1.61 3.4-2.36 4.63-2-1-15.05.17-.08-1.34-1.18-.7h-.41v-.74l-.83-4.19-1.19-3.1-1.71-3.2-.44-.64 2.82-5.77 9.55-3.09 6.77-1.16 9.51-2.77m-1.33 18.73l.72-4.11v-.14l-.12-.08.4-.9.11-.47-.33-2.12.22-1.12.34-9.79.23-.07.62-.26 1.27-1.18 2.61 1 4.35 2 2.13.5 6.33-1.82 2.27-.4.12.33.19 3.83-.51 2.07-.16 2.12-.71 1.94-.18.8-.25 2v4.49l-7-1.79-10.72 2.68-1.92.49m19.62-1.38v-4.49l.25-2 .18-.8.71-1.94.16-2.12.51-2.07-.19-3.83-.12-.33 8.43-.85 5.12.1 2.9.31.46.12.29.26.42.76.64.64.17.51v6l5.81 8.05-3.17 1.76-3.56 1.63-1.56.89-1.78.77-1.56 1-.51-.41-6-1.42-2-.68-5.61-1.88m14.14 4.39l1.56-1 1.78-.77 1.56-.89 3.56-1.63 3.17-1.76 1.22 1.72 4.11 4.88.54 1.23 3.3 4.48 1.91 6 2.41 1.18 1.84 1.51 3.59 7.17.69 3.16-.12 1-2.81-.4-10.2-2.43-2.69-.4-1.17-.07-1.08-.24-3.65-1.38-2.45-1-1.57-1.23-1 .15-.53-3.56-1.47-9.8-1.62-4.18-.5-1.54-.39-.28m-44.71 60.53l-11.37-3.92 5-6.28.18-.48 4.24-5.14 2.68-3 4.53-5.67 1.34 1 .4-.43-.32-1.17.06-.16 2.79-3.39 10.64 5.41 2.69 1.11 2.12.71-1 8.58.15.52.07 2.91.2 1.44v2.51l.18.06-.33 3.62.28 1.66.6 1.43 1.1 1.31.76 1.27-.44 2.41-.22 2.7-.79-.43-1.18-.35-7.08-.65-1.61-.33.51-1.66-16.24-5.59m46.38-30.01l6.57 7.65 1.56 2.32 2.67 3.51 5.23 6.38 3.71 4.84 1.37 1.42-.56.47-2.23 1.17-1.54 1-3.3 1.75-.68 1-14.79 7-.78.33-6.31.22h-.34l-3.05-3.57-1 .79-3.77 2.55-.44.07-1.2-.15-.75.1.08.61-.48-.28.22-2.7.44-2.41-.76-1.27-1.1-1.31-.6-1.43-.28-1.66.33-3.62-.18-.06v-2.51l-.2-1.44-.07-2.91-.15-.52 1-8.58 4.36 1.42 4.32.73 8.81-4.15 3.05-6 .87-.74m-43.87-2.92l.24.31 2.57 2 4.2 2.12-2.79 3.39-.06.16.32 1.17-.4.43-1.34-1-4.53 5.67-2.68 3-4.24 5.14-.18.48-5 6.28-8.09-2.78-2.46-1.63-5.15-3.36-4-2.32-3.37 4.08-2.25 2-4.42.07-.17-.18-.21-4.8 2.32-2-1.61-1.92-.28-.22h-.27l-4.18.86 2.92-3.89 9-13.94 1.77-2.19 8.8-9.18.34-.5.28-1.19 1.07-1.56 1.16.94 8.4 8.3.6.44 5.4 5.34.77-.39 2-.72 2.84 2.76 2.67-1.21m88.58-2.48v.72l-.36 2.79-15-2.1.12-1-.69-3.16-3.59-7.17-1.84-1.51-2.41-1.18-1.91-6-3.3-4.48-.54-1.23-4.11-4.88-1.22-1.72.65-.34 2-.73 2.52-.73 2-.45 1.66-1.12 1.49-.21 1-.72.72-.18h1.61l2.65.31 3.3-.3 3.19-.65 3.22-1.41.62-.16 2.73-1.36.8-.31 1.43 2.7.84 4.45.18 1 .23 3.9v6.51l.33 5.47.76 7.37.88 8" fill="#1af8ff" fill-opacity="0.7000000000000001" stroke="#fdffff" stroke-linecap="square" stroke-linejoin="bevel" fill-rule="evenodd"/></svg>