<svg xmlns="http://www.w3.org/2000/svg" viewBox="0 0 4620 9871.67"><path opacity="0.6000000000000001" d="M0 3571.67H1920V9871.67H0z"/><path d="M509 7656.45l.08-.32.33.08.32.08.08-.32.33.08.24-1 .33.09-.09.32.65.16-.49 1.95.33.08-.09.33.33.08-.08.33-.33-.09-.16.65.65.17-.25 1 .32.08-.32 1.3.32.08-.41 1.63.32.08-.32 1.3-.33-.08.17-.65-.33-.09.08-.32-.32-.08-.16.65-.33-.09.08-.32-.65-.16.09-.33.32.08.08-.32-1.29-.33.16-.65-.32-.08.24-1 .33.08-.09.32.65.17.33.08.16-.65-1-.25.08-.32.32.08.09-.32-.65-.17-.17.65-.32-.08.25-1 .32.09.25-1-.33-.08-.16.65-.33-.08-.08.32-.32-.08-.25 1-.32-.08-.09.33.33.08-.08.32-.33-.08-.08.33.32.08-.08.32-.32-.08-.25 1 .33.08-.42 1.62-.32-.08-.32-.08.08-.33-.33-.08.09-.32-.65-.17-.17.65-.32-.08-.65-.17-.16.65-.33-.08-.16.65-.33-.08.17-.65-.65-.16-.17.64-.32-.08.16-.65-.64-.16.16-.65-1-.25.08-.32.65.16.32.09.08-.33-.64-.16.49-1.95-.33-.08.08-.33.33.08.08-.32-.32-.08.08-.33-.33-.08.17-.65.65.17-.08.32 1.29.33.08-.33.33.09.08-.33.33.08.32.09.16-.65.33.08.25-1 .32.09.32.08.17-.65 1 .25.33.08.08-.33.32.08.08-.32.33.08.08-.32.32.08.33.08m-13.51 13.86l-.33-.09.09-.32-.33-.08.08-.33 1.63.41-.09.33.65.16.08-.32 1 .24-.17.65.33.08.33-1.3.65.17-.17.65-.32-.08-.25 1 .33.08-.09.33.65.16-.24 1-.33-.08-.08.33-.32-.08-.33-.09-.25 1-.32-.09.25-1-1.3-.33.24-1-1-.25.08-.32-.32-.08-.08.32-.33-.08.08-.33-.32-.08.08-.32.33.08.08-.32m12.65 4.57l.32.09-.08.32-.33-.08-.08.32-.32-.08-.17.65.33.08-.25 1 .65.16.08-.32.33.08.16-.65.65.16.32.08.17-.65 1 .25-.16.65 1 .25-.08.32 1 .25-.16.65.32.08-.16.65.32.08-.41 1.62-.32-.08-.33-.08.17-.65-1.3-.33-.17.65-.32-.08-.24 1 .32.08-.17.65-.32-.08-.65-.16-.41 1.62-.32-.08-.17.65-.32-.08-.08.32-.33-.08-1-.25-.08.33-1-.25.09-.32-.33-.09-.08.33-.32-.08-.09.32-.32-.08-.08.32-.33-.08-.65-.16-.08.32.65.17-.25 1 1.3.33.17-.65.64.16.33.09.08-.33 1.3.33.32.08.09-.32.32.08.32.08.09-.32.32.08.32.08.41-1.62.33.08.16-.65.65.16.33.09.08-.33 1 .25-.33 1.3.33.08.24-1 .65.17-.16.65.65.16-.08.33 1 .24-.16.65.32.08-.41 1.63.32.08-.24 1 .32.08-.08.33.65.16-.08.33.32.08-.41 1.62.33.08-.17.65-.32-.08-.33-.08-.16.65.32.08.08-.32.65.16-.41 1.62.33.09-.09.32.33.08-.16.65.32.08-.17.65-.32-.08-.24 1 .32.09-.25 1 .33.08-.33 1.3.65.17-.09.32-.32-.08-.32-.08-.09.32.33.08-.16.65.32.08-.25 1 .33.08-.17.65.33.08.08-.32.32.08-.08.32.33.08-.17.65.33.09-.17.65-.32-.09.08-.32-.32-.08-.17.65.65.16-.41 1.62-.32-.08-.33-.08-.33 1.3 1.3.33-.16.64.32.09-.16.65.32.08-.16.65-.33-.08-.08.32.33.08-.33 1.3.32.08-.41 1.63.32.08-.16.65.33.08-.33 1.3.32.08-.08.32.65.17-.25 1-.32-.08-.33-.08-.16.65.65.16-.17.65.33.08-.25 1 .33.08-.25 1 .32.08.09-.32.32.08-.33 1.3.33.08-.58 2.28.65.16-.08.32-.33-.08-.08.33.65.16-.08.33-.33-.09-.16.65.32.08-.57 2.28.65.16-.25 1 .33.09-.17.65.33.08-.09.32-.32-.08-.16.65.32.08-.08.33.32.08-.08.32-.32-.08-.09.33.33.08-.25 1 .33.08-.33 1.3.32.08-.08.33-.32-.08-.17.65.33.08-.09.32.33.08-.17.65-.32-.08-.08.33-.33-.09-1.62-.41-.16.65-.33-.08.09-.32-1-.25-.16.65-.33-.08-1-.25-.16.65-.33-.08-.65-.16.08-.33-.64-.16-.09.32-.32-.08-1-.25-.08.33-1.3-.33.08-.32.33.08.32.08.16-.65-.65-.16.25-1-.32-.08.24-1 .65.16.32.08.09-.32.65.16-.09.33.65.16.09-.32 1 .24.32.08.17-.65-.33-.08.09-.32-1.3-.33-.09.32-1-.24.25-1-.65-.16.08-.32-.32-.09.08-.32-.33-.08.09-.33-.33-.08.08-.32-1-.25.08-.32-.65-.17.41-1.62-2.59-.66.08-.32-2.27-.58-.08.33-.33-.08-.32-.09-.16.65-2.27-.57.16-.65-.65-.16.25-1-.65-.16.16-.65.33.08.08-.32-.32-.09.41-1.62-.33-.08.33-1.3.32.08.17-.65-.33-.08.09-.32.32.08.16-.65-.32-.08.08-.33.33.08.08-.32-.33-.08.09-.33.32.09.32.08.17-.65.32.08.17-.65-.65-.16.08-.33-.32-.08.24-1-.32-.09.08-.32-.65-.16.08-.33-.32-.08.08-.33-.32-.08.08-.32-.65-.17.16-.65-.32-.08.16-.65-.32-.08.08-.32-.65-.17-.08.33.33.08-.17.65-.32-.08-.33-.09-.08.33-.32-.08-.09.32-.32-.08-1-.25-.09.33-.32-.08-.08.32-.65-.16.08-.33-.32-.08-.09.33-.32-.09-.32-.08-.09.33-.32-.09-.08.33-.33-.08-1-.25-.08.33-.33-.09-1.29-.32-.09.32-.32-.08-.33-.08-.08.32-.32-.08-.08.32-.33-.08-.16.65-.33-.08-.16.65.32.08-.16.65-.32-.08-.65-.17-.17.65.33.08-.17.65-.32-.08-1.3-.33-.16.65 1.29.33.09-.32.64.16-.16.65.32.08-.08.33.33.08-.08.32-.33-.08-.08.33.32.08-.24 1 .32.08-.08.33.32.08-.08.32.33.09-.09.32.33.08-.17.65.65.17-.08.32.33.08-.09.33.33.08-.17.65.33.08-.25 1 .33.09-.17.65-.32-.09-.17.65-.32-.08-.16.65-.33-.08-.65-.17-.08.33 1.3.33-.17.65.33.08.08-.33 1 .25-.08.32.32.09-.08.32-.32-.08-.08.32.65.17-.09.32-.32-.08-.08.33.65.16-.09.32.33.09.08-.33.32.08-.08.33 1.3.33.08-.33.33.08-.09.33.65.16-.16.65-.33-.08-.08.32.33.09-.17.64-.32-.08-.08.33-.33-.08-.24 1-.33-.08-.08.32.32.08-.16.65.32.09-.08.32.32.08-.08.33.33.08-.17.65 1.3.33-.08.32 1.3.33.08-.33 1 .25-.16.65-.33-.08-.08.32-.32-.08-.09.32-.32-.08.08-.32-.32-.08-.08.32-.33-.08-.08.32-.65-.16.08-.33-.32-.08-.08.33-.33-.08.08-.33-.32-.08-.08.32-.65-.16.08-.33-.32-.08-.17.65-.32-.08.08-.33-.65-.16-.24 1-.25-.42-.32-.08-.09.33-.32-.09-1-.24-.08.32-1.95-.49.33-1.3-.65-.16.08-.33-.32-.08.08-.32-.65-.17-.08.33-.33-.09-.41 1.63-.32-.08-.08.32-.33-.08-.16.65-.33-.08-.65-.17-.08.33-.32-.09-.33-.08-.08.33-.32-.08-.17.64-.32-.08-.33 1.3-.32-.08-.17.65-.32-.08-.17.65-.32-.09-.33-.08-.08.33-.32-.09-.49 1.95-.33-.08-.08.32-.32-.08-.33 1.3-.33-.08-.08.32-.65-.16.08-.32-.32-.09-.08.33-.33-.08-.32-.09-.16.65.32.09-.08.32-.33-.08-.08.32.32.08-.16.65-.32-.08-.08.33.64.16-.08.32-.32-.08-.25 1-.32-.09-.17.65-.32-.08-.25 1-.32-.09-.25 1-.32-.08-.33-.09-.08.33-.32-.08-.25 1-.32-.08-.09.32-.32-.08-.32-.08-.42 1.62-.32-.08-.33-.08-.08.32.33.09-.17.64-.32-.08-.08.33-.33-.08-.08.32.32.08-.24 1 .32.08-.32 1.3-.33-.09-.08.33-.32-.08-.25 1-.33-.08-.08.32.33.09-.17.64-.32-.08-.65-.16.08-.33-.65-.16.08-.32-.65-.17-.08.33-.32-.09-.25 1-.65-.17.25-1-.65-.16-.24 1-.33-.08.17-.65-.33-.08-.33 1.3-.32-.09-.65-.16.16-.65-.32-.08-.08.32-.33-.08-.08.33-.32-.09.08-.32-.65-.17.08-.32-.32-.08.33-1.3-.65-.16.16-.65-.65-.17.17-.65-.33-.08.17-.65-.33-.08.17-.65-.33-.08-.24 1-.33-.08.33-1.3-.32-.08-.09.32-.32-.08-.25 1 .33.08-.08.32-.33-.08-.08.33-.33-.09.09-.32-.33-.08.25-1-1-.24-.09.32-.32-.08-.65-.16-.08.32-.33-.08-.32-.08-.08.32-1-.24.08-.33-.33-.08.25-1-.33-.09.17-.65-.33-.08.09-.32-.33-.08.08-.33-.65-.16.17-.65-.33-.08.09-.33-.65-.16.08-.33-.65-.16.08-.33-.32-.08-.41 1.62-.33-.08-.08.33-.32-.08-.17.64-.32-.08-.08.33-.33-.08-.24 1-.33-.08-.08.32-.32-.08-.09.33-.32-.09-.08.33-.33-.08-.08.32-.32-.08-.65-.17-.08.33-.33-.08-.16.65-.33-.09-.16.65-.33-.08-.32-.08-.08.32-.33-.08-.24 1-.33-.09.09-.32-.33-.08.41-1.63-.32-.08.16-.65.33.09.32.08.33-1.3.32.08.41-1.62.33.08.24-1 .33.08.33-1.3.32.08.49-2 .33.08.16-.64.32.08.09-.33-.65-.16.08-.33.33.09.32.08.41-1.62 1 .24.33.08.24-1-.64-.16.08-.33-.33-.08.08-.33.33.09.33-1.3.32.08.08-.33.33.09.08-.33-.65-.16.08-.33-3.89-1-.08.32-.33-.08-1-.24-.08.32-.33-.08.09-.33-.33-.08-.08.33-.32-.08-.33-.09-.08.33-.32-.08-1.3-.33-.08.32-.33-.08-1.62-.41-.08.33-.33-.09-1.62-.41-.08.33-.32-.08-.33-.09-.08.33-.33-.08-1-.25-.08.33-.33-.09-.32 1.3-.33-.08-.32-.08.08-.33.32.09.09-.33-1-.24-.08.32-.32-.08-1.62-.41-.09.32-.32-.08-.65-.16-.08.32-.33-.08-1-.25-.08.33-.33-.08-1.29-.33-.09.32-.32-.08-.32-.08-.17.65-.65-.17.17-.64-.33-.09-.16.65-.33-.08-1-.24-.08.32-.33-.08-.64-.17-.09.33-.32-.08-1-.25-.09.33-.32-.09-1.3-.32-.08.32-1.62-.41.08-.32-.32-.09-.09.33-.64-.17.08-.32-.33-.08.17-.65-.33-.08.09-.33-.33-.08-.16.65-.33-.08-.65-.17-.08.33-.32-.08-.08.32-.33-.08-.08.32-.33-.08-.32-.08-.08.32-.33-.08-.08.33-.32-.08-.08.32-1-.25.08-.32-.32-.08.16-.65-.64-.17.24-1-.32-.08.33-1.3.32.08.16-.65-.32-.08.16-.65-.32-.08.08-.33-.65-.16-.08.33-1.3-.33.17-.65.32.08.49-1.95.33.08.32.09.17-.65.65.16-.09.33.33.08-.08.32.32.08.32.09.17-.65-.33-.09.09-.32-.33-.08.08-.33.33.09.33-1.3 1 .24-.16.65.32.08.16-.65.33.09.32.08.25-1-.65-.16.08-.32-.32-.09.08-.32-.32-.08-.09.32-.32-.08-.08.33-.33-.09-.32-.08-.08.33-.33-.09-.08.33-.32-.08.08-.33-.33-.08.08-.32-.64-.17.08-.32-.33-.09.17-.64-.33-.09.17-.65-1-.24.17-.65-.33-.08.17-.65-.33-.08.09-.33-.33-.08-.33 1.3.33.08-.17.65-.32-.08-.08.32-.33-.08-.32-.08-.08.32-.33-.08-.08.33 1 .24.09-.32 1 .24-.08.33.32.08-.08.32-.33-.08-.08.33.33.08-.09.32.33.08-.33 1.3.33.09-.33 1.29-.33-.08-.08.33-.32-.09-.41 1.63-.33-.08-.32-.09-.17.65-.32-.08-.25 1 .33.08-.08.32.32.08-.08.33-.33-.08-.24 1-.33-.08-.08.32.33.08-.09.33 1.3.33-.08.32.65.17-.08.32 1 .25-.25 1-.32-.08-.17.65.33.08-.08.32-.33-.08-.08.33-.32-.09.08-.32-.33-.08-.16.65-.33-.08.09-.33-.65-.16-.08.32-.33-.08-1-.25-.08.33-.33-.08-1-.25-.08.33-.33-.09-1-.24-.08.32-.33-.08-1.62-.41-.08.33-.32-.09-1.3-.32-.08.32-.33-.08-1.94-.49-.17.65-.32-.09-.65-.16-.08.32-.33-.08-1.3-.33-.16.65-.32-.08.08-.32-1-.25-.09.33-.32-.09-1.3-.32-.08.32-.33-.08-1-.25-.08.33-.32-.08-1-.25-.08.33-.32-.09-1-.24-.08.32-.32-.08-.65-.16-.08.32-.33-.08-1-.25-.08.33-.33-.08.08-.33-.64-.16-.17.65-1.3-.33.33-1.3-.32-.08.08-.33 1 .25.33.08.08-.32.32.08.17-.65.32.08.08-.32.33.08.08-.33 1 .25.33.08.16-.65.33.08.08-.32.32.08.08-.32.33.08.08-.33.33.09.08-.33.32.08.17-.65.32.09.16-.65.33.08.32.08.17-.65.32.08.08-.32-.32-.08.08-.33-.32-.08.08-.32-.33-.09-.16.65-.32-.08-.17.65-.32-.08.08-.33-.65-.16-.25 1-.32-.08-.16.65-.33-.08-.32-.08-.17.65.33.08-.08.32-.33-.08-.32-.08-.08.32-.33-.08-.65-.16-.08.32-.32-.08-.17.65-.32-.08-.08.32-.33-.08-.32-.08-.17.65-.32-.08-.08.32-.33-.08-.32-.08-.08.32-.33-.08-.32-.08-.09.32-.32-.08-.65-.16-.08.32-.32-.08-.65-.16-.09.32-1.29-.33.08-.32-.33-.08-.24 1-.33-.08-.08.32-.32-.08-.65-.16-.16.65 1.62.41.08-.33 1.62.41.33.08.08-.32.65.16.32.08.08-.32 1.3.33-.08.32-.33-.08-.08.32-.32-.08-1.3-.33-.08.33-.33-.08-1-.25-.08.33-.33-.09-1.62-.41-.08.33-.32-.08-1-.25-.08.33-.32-.09-.65-.16-.08.33-.33-.09-1-.24-.17.65-.32-.09-.08.33-.33-.08-1.94-.49-.17.65-.32-.09-.33-.08-.08.33-.65-.17.09-.32-.33-.08-.65-.17-.16.65-.33-.08.17-.65-.33-.08-.08.32-.32-.08-.33-.08-.16.65-.32-.08-1.63-.41-.08.32-.32-.08-1-.25-.08.33-.32-.08-.08.32-.33-.08-1.62-.41-.08.32-.33-.08-2.59-.65-.08.32-.33-.08-1.62-.41-.08.32-.33-.08-.64-.16-.09.32-.32-.08-.65-.16-.08.32-.33-.08-1.62-.41-.08.33-.32-.09-1-.24-.08.32-.32-.08-.09.33-.32-.09.08-.32-.65-.17-.08.33-.32-.08-1-.25-.08.33-1.3-.33.09-.33-.33-.08-.16.65-.33-.08-.16.65-.32-.08-.09.32-.32-.08-.08.32-.33-.08.17-.65.32.09.17-.65-.33-.09.17-.65.32.09.08-.33.33.08.08-.32.32.08.08-.32-.32-.09.08-.32-.32-.08.16-.65-.32-.08.08-.33-.33-.08.17-.65-.33-.08.41-1.62-.32-.09.25-1-.33-.08.33-1.3-.33-.08.17-.65-.33-.08.25-1-.32-.08.24-1-.32-.09.24-1-.32-.08.25-1-.65-.17.24-1-.32-.08.16-.65-.32-.09.49-1.94-.32-.09.08-.32-.33-.08.33-1.3-.32-.08.16-.65-.32-.08.24-1-.32-.08.24-1-.32-.09.41-1.62-.33-.08.33-1.3-.65-.16.09-.33-.33-.08.33-1.3-.32-.08.32-1.3-.32-.08.16-.65-.32-.08.24-1 .33.09.08-.33.33.08-.09.33.33.08.08-.32 1 .24.33.08.08-.32 1.3.33.32.08.08-.33.33.09.08-.33 2.27.57.32.09.09-.33.32.08.32.09.09-.33.32.08.33.08.08-.32.65.16.32.09.08-.33 1 .25.32.08.08-.33.33.09.24-1-.32-.08.08-.32-.32-.09.24-1-.32-.08.16-.65-.32-.08.41-1.63-.33-.08.08-.32.33.08.08-.33-.32-.08.08-.32-.33-.08.25-1-.32-.08.16-.65-.33-.08.17-.65-.33-.08.25-1-.32-.08.24-1-.32-.08.24-1 .08.21.16-.65.33.08.08-.32-.32-.08.24-1-.65-.16.17-.65-.33-.08.41-1.63-.65-.16.33-1.3-.32-.08.08-.33-.33-.08.09-.32.32.08.08-.32-.32-.09.24-1-.32-.08.16-.65-.32-.08.33-1.3-.33-.08.17-.65-.3-.07.17-.64.32.08.33.08.08-.33-.33-.08.08-.32-.32-.08.25-1-.65-.16.08-.33-.32-.08.32-1.3.33.09.16-.65-.32-.09.08-.32.32.08.17-.65.32.08.33.09.16-.65.32.08.33-1.3-.32-.08-.17.65-.32-.08-.08.32-.33-.08-.08.32-.32-.08-.25 1-.32-.09.24-1-.32-.08.08-.33-.32-.08.32-1.3-.32-.08.08-.32.33.08.08-.33-.33-.08.09-.32-.33-.09.16-.64-.32-.09.08-.32-.32-.08.24-1-.32-.08.41-1.62-.65-.17.25-1 .32.08.33.08.08-.32.32.08-.08.33.32.08-.08.32.33.08-.09.33.65.16.33.08.08-.32-.65-.16.16-.65-.64-.17.16-.65-.32-.08.08-.32-.33-.08.09-.33-.65-.16.08-.33.32.08.17-.65.32.09.25-1-.65-.16.08-.33-.32-.08.08-.32-.33-.08.25-1-.65-.16-.08.32-1-.24.16-.65-.33-.08.41-1.63.33.08.08-.32.33.08.08-.32-.65-.17-.08.33-.65-.17.24-1-.32-.08.08-.33-.65-.16.25-1-.33-.09.17-.65-.65-.16.08-.32-.32-.09.24-1 .33.08.16-.65.33.08.08-.32.32.08.33.08.08-.32.32.08.17-.65-.65-.16.08-.33-.32-.08.08-.32-.65-.17.16-.65-.65-.16.09-.32-.33-.09.17-.65.32.09.08-.33-.32-.08.24-1-.32-.09.24-1 .33.08.08-.32-.32-.08.08-.33.32.08.25-1 .32.08.09-.32.32.08.16-.65-.65-.17.17-.64-.33-.09-.08.33-.65-.17.17-.64-.33-.09.25-1-.65-.16.33-1.3-.33-.08.17-.65.32.08-.08.32.65.17-.08.32.32.08-.08.33 1 .24.17-.65-.65-.16.08-.32 1.62.4-.08.33.65.16.32.09.33-1.3-.32-.09.08-.32.32.08.33.08.08-.32.32.08.33.08.16-.65-.32-.08-.33-.08-.08.32-.32-.08.08-.32-.65-.17-.08.33-1.3-.33.08-.32.33.08.08-.33.32.09.17-.65-1.3-.33-.16.65-.33-.08-.32-.09-.09.33-.32-.08.33-1.3.32.08.25-1 .32.08.33.08.08-.32.32.08.09-.33.32.08.08-.32-.32-.08.08-.33 1 .25.33.08.32-1.3-.32-.08-.16.65-1-.25.33-1.29-.32-.09.08-.32-.33-.08-.08.32-.32-.08-.08.32-.33-.08-.24 1 .32.08-.08.32-.33-.08-.08.33-1-.25.08-.32-.65-.17-.24 1 .32.08-.41 1.62.32.08-.32 1.3.32.08-.16.65.32.08-.08.33-.32-.08-.09.32-.32-.08.08-.32-.32-.09.16-.65-.32-.08.41-1.62-.33-.08.08-.33-.32-.08.08-.32-.65-.17.17-.65-1-.24.08-.33-.64-.16.08-.33-.33-.08.09-.32-.65-.17.16-.65-.32-.08.08-.32-.65-.17-.08.33-.33-.08-.08.32-.32-.08-.09.32-.32-.08-.08.33-.33-.08-.82 3.24-.32-.08-.49 1.95.32.08.25-1 .32.08-.32 1.3-.33-.09-.32-.08-.09.33-.32-.09-.25 1 .33.08-.17.65.33.08-.17.65-.32-.08-.08.32-.33-.08-.08.33.33.08-.09.32-.32-.08-.08.33-.33-.09-.32-.08-.16.65-.33-.08-.16.65.32.08-.08.33.65.16-.33 1.3.33.08-.25 1-.33-.08-.41 1.62.33.09-.16.65.32.08-.08.32-.33-.08-.16.65.32.08-.08.33-.32-.09-.08.33-.33-.08-.08.32-.33-.08-1.62-.41-.08.33-1.3-.33.09-.33-.65-.16-.09.32-.32-.08-.65-.16-.08.32-.33-.08-.16.65-.32-.08-.09.32-.32-.08.08-.32-.65-.17.09-.32-.33-.08.16-.65-.32-.09.33-1.29-.33-.09-.08.33-1.3-.33.09-.32-.65-.17.16-.65-1.62-.41-.08.33-.33-.08-.08.32-.32-.08.08-.32-.65-.17.33-1.3-.33-.08.17-.65-.33-.08.25-1-.65-.17.08-.32-.65-.17.08-.32-.32-.08.08-.33-.65-.16.17-.65-.65-.16.24-1-.64-.16.08-.33-.33-.08.41-1.62-.32-.08.16-.65.33.08.16-.65.65.16.32.09.17-.65-.33-.09.25-1-.32-.08.08-.33-.65-.16.16-.65.33.08.08-.32-.33-.08.09-.33-.33-.08.08-.33-.32-.08.08-.32-.32-.08.16-.65-.32-.08.08-.33-.33-.08.41-1.62-.32-.09.08-.32.33.08.24-1-.65-.17.08-.32-.64-.17.08-.32-.33-.08.17-.65.32.08.08-.32-.32-.09.08-.32.33.08.32-1.3-1.29-.32.08-.33-.33-.08-.08.32-.32-.08.08-.32-.33-.08.09-.33-.33-.08.08-.33-.32-.08.33-1.3.32.09.17-.65-.33-.09.16-.64-.32-.09.08-.32-.32-.08.24-1 .33.08.08-.32.32.08.09-.32.32.08.08-.33.33.09.33-1.3-.33-.08.08-.33-.65-.16.09-.33-.33-.08.08-.32-.32-.09.24-1-1-.25.08-.32-.32-.08.16-.65-.32-.08.08-.33-.32-.08.57-2.27-.65-.17.16-.64.33.08.32.08.09-.33.32.09.08-.33-.32-.08.24-1 .33.08.32.08.17-.65.32.08.32.08.09-.32.32.08.41-1.62-.32-.08.32-1.3-.64-.17.16-.65-.33-.08.33-1.3-.32-.08.08-.32.32.08.25-1-1-.25.08-.32-.33-.09.09-.32.32.08.08-.32 1.3.32-.49 1.95.32.08-.24 1 .65.16-.09.33.33.08-.08.32-.33-.08-.16.65.65.16.16-.65.33.09.08-.33 1.62.41.32.08.09-.32.64.16-.08.33.65.16-.08.32 1.95.5-.09.32.65.16-.08.33 1.62.41-.08.32.65.17.25-1 .32.08.08-.32.65.16.33.09.08-.33 1 .25.33.08.16-.65-1.3-.33.08-.32-.32-.08.25-1 .32.08.16-.65.33.09.08-.33 1 .25-.49 1.94.33.09.08-.33.32.08-.08.33.65.16.32.08.33-1.29-.32-.09.24-1 .33.08.08-.32.65.16-.25 1 .65.17.08-.33.65.17-.16.65.65.16-.09.33.33.08-.16.65.64.16-.08.32.33.09-.09.32 1.3.33.08-.33.65.17-.08.32.65.17-.08.32.32.08-.08.33.33.08-.09.32.65.17-.08.32.32.08-.16.65.32.09-.08.32.33.08-.08.33.32.08-.08.32 1 .25-.08.32.32.09-.08.32.65.16-.16.65.65.17-.09.32.33.08-.08.33.32.08-.08.33.65.16-.08.32.64.17.17-.65.65.16.32.08.08-.32 1.63.41-.09.32.33.08-.08.33.32.08-.16.65-.33-.08-.16.65 1.62.41-.16.65-.33-.08-.32-.09.08-.32-1-.25-.09.33-.32-.08-.32-.09-.09.33.33.08-.08.32-.33-.08-.16.65.32.08-.08.33 1 .24-.08.33 1.62.41.09-.33.32.09.08-.33.33.08.49-1.94.32.08.17-.65.32.08.16-.65.65.16.33.09.08-.33 1.3.33-.08.32.32.09.32.08.09-.33-.33-.08.08-.32 1.3.32.33.09.08-.33.32.08.08-.32-.64-.17.81-3.24.33.08.16-.65.33.08.24-1 .33.08.32.08.08-.32.33.08.16-.65 2.27.57.33.09.08-.33.32.08.33.09.08-.33.33.08-.09.33.33.08.08-.33 1 .25.33.08.08-.32.32.08.09-.33.32.09.32.08.09-.33.32.09.08-.33 2.6.66.32.08.09-.33.32.09.08-.33.33.08.08-.32.32.08-.08.32 2 .5.08-.33 1 .25.33.08.08-.33 1.3.33-.09.33.33.08.08-.33.32.09-.08.32 1.3.33.33.08.16-.65.32.08-.16.65.32.08.25-1 .32.08.09-.32.32.08-.08.32.65.17.08-.33.65.17.32.08.08-.33.33.09.08-.33 1.3.33-.08.32.65.17.08-.33.65.17.32.08.08-.33 1.63.41-.25 1 .32.08-.41 1.62.33.08-.25 1 .65.16-.08.33.32.08-.16.65.65.16-.17.65-.32-.08-.08.32-.33-.08-.08.33-.32-.08-.17.64.33.09-.08.32.32.08-.33 1.3.33.08.08-.32.32.08-.24 1 .32.09-.16.65.65.16-.09.32.33.09-.17.65.33.08-.16.65-.33-.09-.08.33-.33-.08-.08.32-.32-.08-1.3-.33-.08.33-.33-.08-1.29-.33-.09.32-1.62-.41.08-.32.33.08.32.08.09-.32-1-.25-.08.33-.32-.09-.09.33-.32-.08.08-.33-.32-.08-.09.32-1-.24.08-.33-.32-.08-.25 1-.32-.09-1-.24-.09.32-.32-.08-1.3-.33-.08.33-1-.25.08-.32-.33-.08-.08.32-.32-.08-.08.32-1-.24-.08.32-.32-.08-1.3-.33-.08.33-.33-.08-1.3-.33-.08.32-.32-.08-.33-.08-.08.32-.32-.08-1.3-.33-.08.33 1 .24-.08.33-.33-.08-.08.32-.32-.08-.33-.08-.08.32-.32-.08-.09.33.65.16-.08.32.33.09-.09.32 1.3.33-.08.32.65.17.08-.33.32.08.09-.32.32.08.25-1 .32.08.33.08.08-.32.32.08.33.08.08-.32 1.62.4-.08.33.32.08-.16.65.32.08.25-1 .32.08.09-.32.32.08.32.08.09-.32.32.08.33.08.08-.33 1.3.33.32.08.08-.32.33.08.08-.32.32.08-.08.32.33.08.08-.32 1 .25.32.08.09-.33.65.17.32.08.08-.33 1 .25.32.08.08-.32.65.16.32.08.09-.32 1 .24.32.09.09-.33 1.29.33-.08.32.33.09.08-.33.32.08.08-.32.33.08.32.08.09-.32 1 .24.32.09.09-.33.32.08.08-.32.33.08-.09.32 1 .25.08-.32 1.3.32-.08.33.32.08.32.08.17-.65.32.08.08-.32.65.16.33.09.08-.33.65.16.32.09.08-.33.65.17.33.08.08-.33.32.09-.08.32.33.08-.09.33.65.16.09-.32.32.08.08-.33 1 .25.32.08.08-.32 1.3.32.32.09.09-.33.32.08.08-.32.65.16.33.08.08-.32.32.08.33.08.08-.32.32.08.33.08.08-.32.32.08-.16.65 1.62.41.08-.33 1.3.33.33.08.08-.32.32.08.17-.65 1 .25.32.08.09-.32.32.08.32.08.09-.33 2.59.66.33.08.08-.32.32.08.09-.33.64.17-.08.32.65.17.08-.33 1.63.41-.09.33 1 .24.08-.32.32.08-.08.32.33.09.08-.33.65.17-.25 1 1.3.33-.08.32.32.08-.41 1.63.32.08-.16.65-.32-.08-.33-.09-.08.33-.32-.08-.33-.08-.08.32-.33-.08-.16.65-.32-.08-.33-.09-.08.33-.32-.08-.09.32-.32-.08-.25 1-.32-.08-.17.65-.32-.08-.08.32-.33-.08-.08.33-.32-.09-.09.33-.32-.08-.08.32-.33-.08-.08.32.33.09.32.08.08-.33.33.08.08-.32.32.08.09-.32 1.29.33.33.08.16-.65.33.08.41-1.62.32.08-.08.32.32.08.09-.32.32.08-.16.65 1 .25.08-.33.33.08.08-.32.32.08.08-.32.33.08.16-.65-1-.25.08-.32 1 .25.33.08.16-.65-.65-.17.41-1.62-.32-.08.16-.65-.32-.08.33-1.3.32.08.08-.32-.65-.17-.16.65-1.3-.33.08-.32-.32-.08.08-.33.65.17.33.08.08-.33-.65-.16.08-.32.65.16.32.08.09-.32.32.08.08-.33.33.09.16-.65.33.08.08-.33 1 .25-.08.32.32.09-.08.32.33.08-.33 1.3.65.17-.33 1.29.65.17-.08.32.32.08-.57 2.28.32.08-.08.32.32.09-.08.32-.32-.08-.17.65.33.08-.17.65.33.08-.17.65.33.08-.41 1.63.32.08-.08.32.32.08-.24 1 .32.08-.58 1.79.33.08-.17.65.33.08-.08.33.32.08-.33 1.3.33.08-.25 1 .33.08-.09.33-.32-.08-.25 1 .33.08-.17.65.33.08-.17.65.33.09-.25 1 .33.08-.33 1.3.32.08-.08.33.33.08-.33 1.3.32.08-.08.32-.32-.08-.17.65.33.08-.17.65.33.08-.25 1 .33.08-.17.65.33.08-.17.65.33.08-.33 1.3.32.08-.24 1 .32.08-.16.65.32.08-.16.65.32.08-.41 1.62.33.09-.41 1.62.64.16-.08.33.65.16-.08.33.32.08.09-.33.32.09.08-.33.65.16-.08.33.32.08-.33 1.3.33.08.08-.32.33.08.32.08.08-.32-.65-.17.17-.65.32.09.08-.33.33.08.33-1.3.32.09-.08.32.32.08-.16.65.32.08-.08.33 1 .24.09-.32.32.08-.08.33.32.08.25-1 .32.09.09-.33.32.08-.25 1-.32-.08-.08.32.32.08-.08.33-.32-.08-1.95-.5-.16.65.32.08-.08.33 1 .24.08-.32 1.3.33-.08.32.32.08-.08.33-.32-.08-.33-.08.08-.33-.64-.16-.25 1 .32.08-.24 1 .32.08.08-.33.65.17-.08.32-.32-.08-.09.33.65.16-.16.65-.33-.08.09-.33-.65-.16-.08.32.32.08-.08.33.32.08-.08.33-.32-.09-.09.33-.32-.08-.66 2.59-.32-.08-.16.65.32.08-.08.33-.33-.08-.16.64-.33-.08-.64-.16-.17.65-.32-.08-.33-.09.09-.32-1.3-.33-.08.33-.33-.09-.16.65.32.09-.16.64.32.09-.24 1 .64.16-.16.65.33.09-.09.32.33.08-.25 1 .33.08-.09.32.33.09-.08.32-.33-.08-.16.65-.33-.08-.16.64.32.09-.24 1 .32.08-.24 1 .32.08-.41 1.62.32.08-.24 1 1.62.41.08-.33.65.17-.08.32.32.08-.08.33.33.08-.09.32.33.09-.08.32.32.08-.08.33.32.08-.16.65.32.08-.16.65 1.3.33-.17.65.33.08-.17.65.33.08-.08.32.32.09-.08.32-.33-.08-.49 1.95 1 .24.09-.32.32.08.33.08.08-.32 1.94.49-.08.32.33.09.08-.33.65.17-.09.32 1.3.33-.08.32.32.08-.16.65 1 .25-.16.65.32.08-.16.65.32.08-.08.33.65.16-.16.65.32.08-.24 1-.33-.09-.25 1-.32-.08-.16.64-.33-.08-.08.33.32.08-.08.32-.32-.08-.08.33.32.08-.08.32-.33-.08-.32-.08-.08.32-.33-.08-.08.33.33.08-.09.32-.32-.08-.33-.08-.24 1-.33-.08-.08.33-.32-.09.08-.32-.32-.08-.09.32-.32-.08-.33-.08-.08.32-.32-.08-.08.33-.33-.09-.32-.08-.08.33-.65-.17.08-.32-.33-.08.25-1-.65-.16-.16.65.32.08-.08.32-.32-.08-.09.33-.32-.09.08-.32-1.62-.41.08-.32-.32-.09.16-.65-1.3-.32-.24 1 .32.08-.08.33.65.16-.08.33 1 .24-.08.33.65.16-.17.65.33.08-.33 1.3-.33-.08-.32-.08-.25 1 .33.08.16-.65.33.08-.09.33.33.08.16-.65.33.08-.08.33.32.08.16-.65.65.16-.08.33.32.08.09-.32.32.08.33-1.3.32.08.33.08.16-.65.33.09.08-.33.32.08.33.09.08-.33 1 .25-.08.32.32.08-.16.65.33.09.08-.33.32.08.33.08.08-.32.32.08.08-.32.33.08.24-1 .33.08.32.08.09-.33-.65-.16.16-.65.33.08.16-.65-.33-.08.17-.65-.33-.08.17-.65.32.08.25-1 .32.08.09-.32.32.08.25-1 .32.09.08-.33.33.08.32.09.33-1.3-.32-.08.08-.33-.33-.08.08-.33 1 .25.32.08.08-.32.33.08.08-.33-.65-.16-.08.33-.32-.09.08-.32-.33-.08-.08.32-1-.24.08-.33-.65-.16.17-.65.32.08.32.08.33-1.3.33.09.16-.65.32.08.17-.65-.33-.08.09-.33.65.17.32.08.16-.65.65.16.33.08.08-.32.65.16.16-.65-.65-.16.25-1 .32.08.09-.33.32.09-.08.32.65.16.08-.32.65.16.32.09.08-.33-.32-.08.08-.33-.32-.08.08-.32.32.08.17-.65.32.08.17-.65.32.09.33.08.08-.33.32.08.08-.32.65.16.33.09.08-.33.65.17.32.08.08-.33.65.17-.08.32.65.17.08-.33 1.3.33.32.08.09-.32.64.16-.08.32.33.09-.09.32.33.08.24-1 .65.16.33.09.08-.33.32.08.09-.32.32.08.08-.32.33.08-.08.32.64.17.09-.33.32.08.08-.32.33.08-.09.32.33.09.32.08.17-.65 1 .25.33.08.08-.33.32.08.08-.32.33.08.08-.32.33.08-.09.32.65.17.08-.33.65.17.33.08.08-.33.65.17.32.08.08-.32.65.16.33.08.08-.32.32.08-.08.32.33.09.08-.33.32.08.33.09.08-.33.32.08.09-.32 1.29.33.33.08.08-.33.65.17.32.08.08-.33.65.17.33.08.08-.32.32.08-.08.32 1 .25.09-.33.32.09.17-.65.64.16-.08.33 1.3.32.08-.32.33.08.08-.32 1 .24.33.08.08-.32 1 .25.33.08.08-.33.32.08-.08.33 1 .24.33.09.16-.65.33.08.32.08.08-.32.33.08-.09.32.33.09.08-.33.33.08.32.08.16-.64 1 .24-.08.33.32.08.08-.33.65.17.32.08.17-.65.32.08.33.08.08-.32.32.08-.16.65.33.08.08-.32 1.29.33.33.08.16-.65.33.08.08-.32.32.08.09-.33.32.09.41-1.63.32.08.17-.65.32.09.09-.33.32.08.32.09.09-.33.32.08.33.09.08-.33.32.08.33.09.08-.33.32.08.33.08.08-.32.32.08.09-.32.32.08-.33 1.3.33.08-.17.65.65.16-.08.33.32.08.5-1.95-.33-.08.33-1.3-.65-.16.57-2.28.33.09-.08.32.32.08.08-.32.33.08-.08.33.64.16.09-.33.32.09.25-1-.33-.08-.08.33-1-.25.24-1 .33.08.33-1.3.32.08.33.08.08-.32-.65-.17.25-1 1 .25-.25 1 .33.08.16-.65.33.09.08-.33-.33-.08.08-.33-.64-.16.08-.32.32.08.33.08.08-.33.32.09.17-.65-.65-.17.16-.65.33.09.32-1.3.33.08.32.08.17-.65-.33-.08.25-1 .32.08.09-.33-.33-.08.25-1 .32.08.09-.32.32.08.32.08.09-.33.32.09.08-.33.33.08.16-.65.65.17.32.08.33-1.3.33.08.08-.32.32.08.17-.65.32.08.08-.32.33.08.32.08.17-.65.32.09-.08.32.65.16.32.09.17-.65.32.08.33.08.08-.32.32.08-.16.65.65.16-.09.33.33.08-.17.65.33.08-.08.32 1.29.33-.08.33.33.08-.09.32.33.09-.17.65.65.16-.24 1 .32.09-.33 1.29-.32-.08-.33-.08-.08.32-.32-.08-.17.65.65.17-.08.32-.32-.08-.65-.17-.08.33-.33-.08-.08.32-.32-.08-.65-.16-.09.32-.32-.08-.33-.08-.08.32-.32-.08-.08.32m4.28 6.27l.65.16-.25 1 .65.16-.16.65-.72-.32-.08.32-.32-.08.16-.65-.32-.08.08-.33-.33-.08.25-1m-69.09 9.9l-.32-.08.16-.65-.32-.08.24-1 1 .25-.16.65.33.08-.25 1-.33-.08-.16.65-.32-.08.16-.65m-6.89-1.4l-.09.33.65.16-.16.65-.33-.08-.08.32-.32-.08-.08.33-.33-.08-.08.32.32.08-.08.33.33.08-.17.65-.32-.08.08-.33-.32-.08.08-.33-.33-.08.25-1-.33-.08.09-.33-.65-.16.08-.33-.32-.08.08-.32-.33-.09.17-.64.32.08-.08.32.32.08.09-.32.32.08.32.08.17-.65-.65-.16.08-.32.65.16.33.08.08-.32-.33-.09.09-.32.32.08.16-.65.65.17.33.08.08-.33.32.09.09-.33.64.17-.08.32.65.16-.08.33.32.08-.16.65-.33-.08-1-.25-.16.65.32.08-.08.33-.32-.08-.17.65-.32-.09-.09.33-.32-.08-.32-.09m1.37 1.39l-.32-.08.08-.33.32.08.17-.65.32.09-.08.32.32.08-.16.65.33.08-.09.33-.32-.08-.08.32.32.08-.08.33.32.08-.08.32 1 .25.17-.65.32.08.08-.32-.32-.08.16-.65.33.08.08-.33-.32-.08.32-1.3.65.17-.08.32.33.08-.17.65.65.17-.08.32.32.08-.08.33.33.08.32.08.08-.32.33.08-.17.65.33.08-.17.65-.32-.08-.08.32-.33-.08.08-.32-.32-.09-.25 1-.32-.08-.65-.17-.08.33-.33-.09-.08.33-1-.25.08-.32-.32-.08.08-.33-1.3-.33.08-.32-.32-.08.08-.33-.65-.16.08-.33.33.09.32.08.08-.33-.32-.08.08-.32m2.91 3.5l1 .24-.33 1.3-.33-.08-.64-.17.08-.32-.33-.08.17-.65.32.08.08-.32m51.37 28.87l-.32-.09.08-.32-.32-.08.08-.33.32.08.17-.64.32.08.33.08.08-.33.32.09-.08.32.32.08.17-.65.32.09-.08.32.65.17.08-.33.33.08.08-.32-.33-.08.09-.33.32.08.25-1 .32.08.25-1 .32.08.33.08.08-.32.32.08.08-.33.33.09.08-.33.33.08.24-1 1 .25-.25 1-.32-.08-.33-.08-.08.32.65.16-.25 1-.32-.08-.33-.09-.08.33-.32-.08.08-.33-.65-.16-.17.65 1.3.33-.16.64.32.09-.24 1 .32.08-.33 1.3.33.08-.25 1 .32.08-.24 1 .32.08-.24 1-.33-.08-3.89-1-.08.33-1.3-.33.08-.33-.32-.08-.08.33-.33-.08-.32-.09-.08.33-.33-.08.08-.33-.32-.08.16-.65.33.08.33-1.3.32.09.16-.65m-52.35 32.35l.33-1.29.33.08-.33 1.3.32.08.08-.33.33.09.08-.33.32.08.33.08.16-.64.33.08-.08.32.32.08.32.09.25-1 .33.08-.09.33.33.08.32-1.3.33.08.08-.32.65.16-.08.33.32.08-.08.32.65.17.08-.33.65.17.33.08.08-.32.32.08.08-.33-.32-.08.08-.32.33.08.32.08.08-.32-.32-.09.08-.32.32.08.25-1-.32-.09.08-.32-.33-.08-.08.32-.32-.08.16-.65.33.08.32.09.16-.65.65.16-.16.65 2.92.74-.08.32.32.08-.16.65-.33-.08-.08.33.32.08-.08.32.65.17-.08.32.65.16.08-.32 1.3.33.32.08.08-.32.33.08.08-.33.65.17-.08.32.32.08-.41 1.63.32.08.33.08.08-.32.32.08-.08.32.33.08-.08.33.32.08-.58 2.27-.32-.08-.08.33-.33-.09-.32-.08-.08.33-.65-.17.08-.32-.32-.08-.33 1.29-.33-.08-.08.33.33.08-.25 1 .32.09-.08.32.33.08-.08.33.32.08-.08.32.32.09-.08.32.33.08-.17.65.32.08.09-.32.32.08.33.08.32-1.3.33.09.32.08.08-.33.33.09.08-.33.32.08.33.08.08-.32.33.08.08-.32.32.08.17-.65.32.08.08-.32.33.08.08-.33 1 .25.33.08.08-.32.32.08.33.08.08-.32.32.08.33.08.16-.65.33.08.08-.32.32.08.09-.32.32.08-.08.32 1.3.33-.09.33.65.16-.08.32-.38-.16-.24 1-.33-.09-.08.33-.32-.08-.17.65-.32-.09.08-.32-.32-.08-.08.32-.33-.08-.65-.16-.08.32 1.3.33-.08.32-.33-.08-.08.33-.33-.09-.32-.08-.41 1.63-.32-.09-.09.33-.32-.08.08-.33-.32-.08-.17.65.33.08-.09.33.65.16-.08.32-.32-.08-.65-.16-.08.32.32.08-.16.65.32.09-.25 1-.32-.08-.25 1-.32-.08-.08.32.32.09-.08.32.32.08-.32 1.3.32.08-.08.33-.33-.08-.24 1-.33-.08-.24 1-.33-.08-.24 1-.33-.08-.41 1.63-.32-.09-.17.65-.32-.08-.08.32-1.3-.32.16-.65-1.29-.33-.17.65-.32-.08-.33-.08-.08.32-.32-.08-.08.32-.33-.08-.08.33-.33-.09-.32-.08-.16.65-.33-.08-.16.65-1-.25.09-.32-.65-.17.08-.32-.32-.08.08-.33-.65-.16-.08.32-.33-.08-.08.33-.32-.09-.17.65-.32-.08-.25 1-.32-.08-.08.33-.33-.08-.08.32-.33-.08-.08.32-.65-.16.09-.33-.65-.16.08-.32-.65-.17.08-.32-.32-.08-.08.32-.65-.16.16-.65-.65-.17.09-.32-.65-.17.08-.32-.33-.08.09-.33-.65-.16.08-.33-.65-.16.08-.32-.32-.09.08-.32-1.3-.33-.08.33-.32-.09.08-.32-.32-.08.08-.33-.33-.08.08-.32-.64-.17.16-.65-2.27-.57.08-.33-1-.24.08-.33-.65-.16.08-.33-1.94-.49.33-1.3.32.09.41-1.63.65.17.32.08.09-.33-1.3-.32.08-.33.33.08.08-.32 1.29.33.33.08.08-.33-.32-.08.16-.65-.32-.08.41-1.62-.33-.08.08-.33-.32-.08.16-.65.65.16-.08.33.33.08.16-.65.32.08.58-2.27.32.08.08-.32-.32-.08.08-.33-.32-.08.08-.32-.32-.09.16-.65.32.09.09-.33.64.17.33.08.08-.33.32.08.09-.32-.33-.08.09-.33.32.09.16-.65.65.16.33.08.08-.32-.65-.17.08-.32-.32-.08.08-.33.32.08" fill="#fc0" fill-rule="evenodd"/></svg>