<svg id="viz" xmlns="http://www.w3.org/2000/svg" viewBox="0 0 640 310"><style>.st0,.st1{fill:#fcbe00;stroke:#000;stroke-width:2.8346;stroke-miterlimit:10}.st1{fill:#84660d}.st2{font-family:&apos;NotoSans-Italic&apos;}.st3{font-size:21px}.st4{fill:#fff}.st5{font-family:&apos;NotoSerif&apos;}.st6{fill:none;stroke:#fff;stroke-miterlimit:10}.st7{font-size:16px}</style><path id="_x32_010" class="st0" d="M320 40c63.51 0 115 51.49 115 115s-51.49 115-115 115-115-51.49-115-115S256.49 40 320 40z"/><path id="_x31_992" class="st1" d="M320 98.98c30.94 0 56.02 25.08 56.02 56.02s-25.08 56.02-56.02 56.02-56.02-25.08-56.02-56.02S289.06 98.98 320 98.98z"/><text transform="translate(288.356 241.866)" class="st2 st3">25 124</text><text transform="translate(294.14 162.366)" class="st2 st3">5 962</text><text transform="translate(470.613 241.866)" class="st4 st5 st3">2010</text><text transform="translate(470.613 162.366)" class="st4 st5 st3">1992</text><path class="st6" d="M353 155.5L461.09 155.5"/><path class="st6" d="M361 235L461.09 235"/><text transform="translate(99.213 52.453)" class="st4 st5 st7">En nombre</text><text transform="translate(99.213 77.653)" class="st4 st5 st7">d’habitants</text></svg>