<svg viewBox="0 0 30 445" xmlns="http://www.w3.org/2000/svg"><g fill="none" stroke="#fff" stroke-miterlimit="10"><path d="m2.12 5.99v425.22"/><path d="m2.12 59.14h6.61"/><path d="m2.12 112.29h6.61"/><path d="m2.12 165.45h6.61"/><path d="m2.12 5.99h6.61"/><path d="m2.12 218.6h6.61"/><path d="m2.12 324.9h6.61"/><path d="m2.12 378.06h6.61"/><path d="m2.12 431.21h6.61"/><path d="m2.12 271.75h6.61"/></g><text fill="#fff" font-family="NotoSerif, Noto Serif" font-size="7" letter-spacing=".046875em" transform="translate(10.15 8.56)">4<tspan letter-spacing="-.00013950893em" x="4.24" y="0">0</tspan><tspan letter-spacing=".06277901786em"><tspan x="0" y="7">k</tspan><tspan letter-spacing=".00013950893em" x="4.53" y="7">m</tspan></tspan></text><text fill="#fff" font-family="NotoSerif, Noto Serif" font-size="7" letter-spacing=".02901785714em" transform="translate(10.15 61.71)">3<tspan letter-spacing="-.00013950893em" x="4.12" y="0">0</tspan><tspan letter-spacing=".06277901786em"><tspan x="0" y="7">k</tspan><tspan letter-spacing=".00013950893em" x="4.53" y="7">m</tspan></tspan></text><text fill="#fff" font-family="NotoSerif, Noto Serif" font-size="7" letter-spacing=".01729910714em" transform="translate(10.15 114.87)">2<tspan letter-spacing="-.00013950893em" x="4.03" y="0">0</tspan><tspan letter-spacing=".06277901786em"><tspan x="0" y="7">k</tspan><tspan letter-spacing=".00013950893em" x="4.53" y="7">m</tspan></tspan></text><text fill="#fff" font-family="NotoSerif, Noto Serif" font-size="7" transform="translate(10.15 168.02)"><tspan letter-spacing="-.01729910714em">1</tspan><tspan x="3.79" y="0">0</tspan><tspan letter-spacing=".06277901786em"><tspan x="0" y="7">k</tspan><tspan letter-spacing=".00013950893em" x="4.53" y="7">m</tspan></tspan></text><text fill="#fff" font-family="NotoSerif, Noto Serif" font-size="7" transform="translate(10.15 221.17)">0</text><text fill="#fff" font-family="NotoSerif, Noto Serif" font-size="7" transform="translate(10.15 274.32)"><tspan letter-spacing="-.01729910714em">1</tspan><tspan x="3.79" y="0">0</tspan><tspan letter-spacing=".06277901786em"><tspan x="0" y="7">k</tspan><tspan letter-spacing=".00013950893em" x="4.53" y="7">m</tspan></tspan></text><text fill="#fff" font-family="NotoSerif, Noto Serif" font-size="7" letter-spacing=".01729910714em" transform="translate(10.15 327.48)">2<tspan letter-spacing="-.00013950893em" x="4.03" y="0">0</tspan><tspan letter-spacing=".06277901786em"><tspan x="0" y="7">k</tspan><tspan letter-spacing=".00013950893em" x="4.53" y="7">m</tspan></tspan></text><text fill="#fff" font-family="NotoSerif, Noto Serif" font-size="7" letter-spacing=".02901785714em" transform="translate(10.15 380.63)">3<tspan letter-spacing="-.00013950893em" x="4.12" y="0">0</tspan><tspan letter-spacing=".06277901786em"><tspan x="0" y="7">k</tspan><tspan letter-spacing=".00013950893em" x="4.53" y="7">m</tspan></tspan></text><text fill="#fff" font-family="NotoSerif, Noto Serif" font-size="7" letter-spacing=".046875em" transform="translate(10.15 433.78)">4<tspan letter-spacing="-.00013950893em" x="4.24" y="0">0</tspan><tspan letter-spacing=".06277901786em"><tspan x="0" y="7">k</tspan><tspan letter-spacing=".00013950893em" x="4.53" y="7">m</tspan></tspan></text></svg>